<?xml version="1.0" encoding="utf-8"?>
<!-- Generator: Adobe Illustrator 19.1.0, SVG Export Plug-In . SVG Version: 6.00 Build 0)  -->
<svg version="1.1" id="Layer_1" xmlns="http://www.w3.org/2000/svg" xmlns:xlink="http://www.w3.org/1999/xlink" x="0px" y="0px"
	 width="89.2px" height="63.5px" viewBox="0 0 89.2 63.5" enable-background="new 0 0 89.2 63.5" xml:space="preserve">
<g>
	<path fill="none" d="M66.1,18.8c0.1,0.1,0.3,0.3,0.4,0.4C66.4,19.1,66.2,19,66.1,18.8L66.1,18.8z"/>
	<path fill="none" d="M23.3,37.2c-0.4-1-0.7-1.8-1-2.7l0,0C22.7,35.4,23,36.3,23.3,37.2z"/>
	<path fill="none" d="M55.8,43.9c1.4-0.4,2.8-0.8,4.2-1.2C58.7,43.1,57.3,43.5,55.8,43.9C55.8,43.9,55.8,43.9,55.8,43.9z"/>
	<path fill="none" d="M33.8,17C33.8,17,33.8,17,33.8,17c0.5-0.7,0.9-1.2,1.4-1.9C34.7,15.8,34.3,16.3,33.8,17z"/>
	<polygon fill="none" points="38.3,14 38.2,14.1 38.2,14.1 	"/>
	<path fill="none" d="M67.2,18.7c0.1,0,0.3,0,0.4,0C67.5,18.7,67.3,18.7,67.2,18.7z"/>
	<path fill="none" d="M53.2,44.4c0.8-0.2,1.8-0.3,2.6-0.5c0,0,0,0,0,0C55,44.1,54,44.2,53.2,44.4z"/>
	<path fill="none" d="M50.5,25.6c0.2-0.1,0.5-0.2,0.7-0.2C51,25.4,50.7,25.5,50.5,25.6z"/>
	<path fill="none" d="M22.4,34.2C22.4,34.2,22.4,34.2,22.4,34.2c-0.3,1.3-0.5,1.9-0.8,3.1C21.9,36.1,22.1,35.5,22.4,34.2z"/>
	<path fill="none" d="M18.1,50.5c0.2,0.2,0.3,0.3,0.5,0.4C18.4,50.8,18.3,50.7,18.1,50.5z"/>
	<path fill="none" d="M20,49.6C20,49.6,20,49.6,20,49.6c-0.5,1-0.9,1.5-1.4,1.3C19.1,51.1,19.5,50.6,20,49.6z"/>
	<path fill="none" d="M61.7,29.1c0.2,0,0.4-0.1,0.7-0.3C62.1,29,61.9,29,61.7,29.1z"/>
	<path fill="none" d="M55.8,43.9L55.8,43.9c-0.5-0.4-1-0.9-1.5-1.3C54.8,43,55.3,43.5,55.8,43.9z"/>
	<path fill="none" d="M66,18.8C66,18.8,66,18.8,66,18.8c-0.4,0.3-0.8,0.7-1.3,1.1C65.2,19.5,65.6,19.2,66,18.8z"/>
	<polygon fill="#722C09" points="33.8,17 33.8,17 33.8,17 	"/>
	<path fill="#722C09" d="M66.1,18.8L66.1,18.8C66.1,18.8,66.1,18.8,66.1,18.8L66.1,18.8C66.1,18.8,66.1,18.8,66.1,18.8z"/>
	<path fill="#722C09" d="M33.8,17C33.8,17,33.8,17,33.8,17C33.8,17,33.8,17,33.8,17C33.8,17,33.8,17,33.8,17
		C33.8,17,33.8,17,33.8,17z"/>
	<rect x="66.1" y="18.8" fill="#722C09" width="0" height="0"/>
	<polygon fill="#722C09" points="66,18.8 66,18.8 66,18.8 	"/>
	<path fill="#722C09" d="M61.9,43.5c-0.7-0.3-1.3-0.6-1.9-0.8c-1.4,0.4-2.8,0.8-4.2,1.2c0,0,0,0,0,0l0,0c0,0,0,0,0,0
		c-0.8,0.2-1.8,0.3-2.6,0.5c-0.5,0.1-0.9,0.3-1.2,0.6c-1.7,2.1-3.9,0.9-5.7,1.3c0,0-0.1,0.1-0.2,0.4c0.5,0.3,1,0.6,1.5,0.9
		c-0.1,0.2-0.1,0.4-0.3,0.5c-4.7,4.1-10.1,5.9-16.3,5.5c-4-0.3-8-0.7-11.9-1.2c-1.2-0.2-2.3-0.9-3.6-1.4c-1.1,0-2.5,0.2-3.9,0
		c-0.5-0.1-1.5-1.2-1.4-1.4c0.3-0.8,1.1-1.4,1.7-2.1c0.5,0.4,1,0.9,1.4,1.3c0.2,0.1,0.3,0.3,0.6,0.7c0.5-0.6,0.9-1,1.5-1.8
		c0.7,0.7,1.6,1.2,2,2.1c0.2,0.4,0.4,0.6,0.5,0.8c0.2,0.2,0.3,0.3,0.5,0.4c0.5,0.2,1-0.3,1.4-1.3c-0.5-0.3-0.9-0.7-1.7-1.2
		c2-0.1,3.7-0.2,5.4-0.2c0.4,0,0.9,0.4,1.1,0.8c1.1,1.7,2.4,2,3.9,0.8c3.8-2.9,8.2-4.7,12.6-6.3c1.5-0.6,3.3-0.4,4.4-2
		c0.2-0.3,0.9-0.1,1.4-0.2c0.7-0.1,1.5-0.2,2.3-0.4c0.2,0.1,0.7,0.5,1.3,0.8c0.1-0.5,0.2-1.2,0.5-1.6c0.3-0.4,0.9-0.6,1.3-0.8
		c0,0,0,0,0,0c0,0,0,0,0,0c1.9-0.1,4.2-0.9,5.7-0.2c1.8,0.8,3.5,0.9,5.3,1.1c0.2-0.6,0.4-1.3,0.4-2c0-0.4,0.1-0.7,0.1-1.1
		c-3.7-0.9-7.5-1.1-11.4-0.5c-3.5,0.6-7,2-10.3,3.5c-7,3.1-14.1,6.1-22,5.8c-3.3-0.1-6.5-0.5-9.8-0.9c-1.5-0.2-2-2-1.4-4.5
		c3.2,0.2,6.5,0.4,9.7,0.5c6.5,0.2,12.6-1.3,18.4-3.8c3.3-1.4,6.7-3,10.1-4.1c2.4-0.7,5-0.9,7.5-0.9c2.9,0,5.7,0.4,8.5,1
		c-0.5-1.4-1.3-2.5-2.1-3.5c-0.9-0.3-1.8-0.5-2.7-0.8c-0.4-0.1-0.9-0.3-1.2-0.2c-2.7,0.9-5.4,1.5-8.4,1.2c-1.7-0.1-3.4,1-5.4,1.6
		c-0.4-1.1-0.7-2.3-1.3-3.3c-0.2-0.4-1-0.6-1.5-0.6c-0.2,0-0.7,0.7-0.7,1.1c0.2,4.1,0.2,4.1-3.5,5.6c-0.8,0.3-1.6,0.6-2.6,1
		c-0.2-0.6-0.4-1.2-0.6-2.1c0.6,0,1.2,0,1.8,0c0-0.2-0.1-0.5-0.1-0.7c-0.4-0.2-0.9-0.4-1.5-0.7c0.5-0.3,1-0.8,1.4-0.8
		c0.5,0.1,1,0.6,1.3,1.1c0.2,0.4,0,1,0,1.4c0.5-0.3,1.3-0.4,1.6-0.8c0.6-0.8,0.9-1.8,1.4-2.7c-0.2-0.1-0.4-0.3-0.6-0.4
		c-0.5,0.4-0.9,0.7-1.3,1.1c-0.1-0.1-0.2-0.2-0.3-0.3c1.6-1.6,3.3-3.1,4.9-4.7c2.4,2,4.4,1.5,5.8-1c0.6,0.4,1.3,0.8,1.9,1.1
		c0.3-0.2,0.5-0.3,0.9-0.5c0.2-0.1,0.5-0.2,0.7-0.2c0.9-0.2,2.1-0.3,3.3-0.2c-0.5-0.8-1.2-1.9-1.7-3.2c-1-0.1-2.1-0.3-3.1-0.4
		c-2.2-0.2-4.5,0.2-6.6,1c-7.3,2.7-14.6,3.1-22.1,1.3c-3.9-0.9-7.7-2.6-11.5-4c-1.7-0.6-1.7-1.9-0.4-5.1c2.7,1.1,5.2,2.3,7.8,3.1
		c6.9,2.3,13.9,2.7,21.1,1.6c3.4-0.5,6.8-0.9,10.2-1.1c1.4-0.1,2.9,0,4.2,0.5c0.1-0.8,0.3-1.7,0.7-2.5c-0.7-0.1-1.4-0.2-2.1-0.3
		c-1.1-0.1-2.3-0.1-3.4-0.1c-0.8,0-1.6,0.1-2.7,0.2c-0.1-1.3-0.1-2.5-0.4-3.6c-0.1-0.5-0.9-0.8-1.5-1c-0.2-0.1-0.7,0.6-0.8,1
		c-0.2,0.5-0.1,1-0.1,1.5c0.1,1.7-0.8,2.5-2.5,2.6C37.7,16.6,36,16.9,34,17c0,0,0.2,0,0.2,0v0c0,0-0.2,0-0.2,0l-0.1,0
		c0,0-0.1,0-0.1,0c0,0,0,0,0,0c0,0,0,0,0,0c-3.4,0-6.9,0-10.6,0c0.3-1.3,0.6-2,0.6-2.7c0-0.3-0.3-0.7-0.5-1
		c-0.3,0.2-0.8,0.4-0.9,0.7c-0.2,0.6-0.3,1.4-0.5,2.7c-3.9-1.6-7.4-2.9-10.9-4.5c-0.8-0.4-1.1-1.8-1.6-2.7c2.2-1.5,3.8-1,5.5,0
		c1.4,0.9,3.7,0.9,3.1,3.8c4.2-2.8,7.7,1.2,11.3,0.3c0.6,1,0.9,1.6,1.3,2.3c0.5-0.6,1.1-1.2,1.8-2.1c0.5,1.1,1,2.3,1.5,3.3
		c0,0,0,0,0,0c0,0,0,0,0,0c0.5-0.6,0.9-1.2,1.4-1.9c0.2-0.2,0.4-0.5,0.6-0.7c0,0-0.4-0.3-0.7-0.7c0.1-0.2,0.2-0.4,0.3-0.6
		c1,0.4,1.9,0.7,2.9,1.1l0.1-0.1c0.2-1.5,1.2-2.1,2.5-2.5c1.3-0.4,2.6-0.9,3.9-1.3c1.6,2.1,3.5,2.3,5.8,0.5c0.5,0.4,1,0.9,1.2,1.1
		c1.8-0.2,3.3,0.1,4.8,0.7c1-0.7,2.2-1.4,3.6-2.1c-0.3-0.2-0.7-0.4-1-0.5c-6.2-3.2-12.5-4.4-19.2-1.2c-3.6,1.7-7.7,2.2-11.8,1.4
		C22.3,9,16.8,7.3,11.9,3.8c-0.8-0.5-1.7-0.9-2.7-1.5C8.8,3.6,8.5,4.5,8.4,5.4C7.4,11,6.5,16.6,5.6,22.2c-0.5,2.8-0.4,5.2,2.6,6.6
		c-0.6-0.1-1.3-0.2-2.2-0.3c0,0.9-0.2,1.6-0.1,2.2c0.6,6,1.2,12,2,18c0.5,3.7,1.2,4.4,4.9,5c4.1,0.7,8.2,1.1,12.3,1.9
		c9.2,1.7,17.6,0.3,25-5.9c2.6-2.2,5.8-3.4,9.1-3.4C60.2,45.5,61.1,44.6,61.9,43.5z M7.7,23.9c0.9-0.4,2-1.3,2.8-1
		c1.4,0.4,2.6,1.4,3.9,2.1c0.7,0.3,1.5,0.2,2.2,0.4c1.8,0.4,3.5,0.9,4.5,1.2c1.1,1.5,1.8,2.5,2.6,3.5c0.2-0.1,0.4-0.3,0.7-0.4
		c-0.2-0.7-0.4-1.4-0.6-2.1c0.1-0.2,0.3-0.4,0.4-0.5c0.8,0.5,1.9,0.7,2.4,1.4c1.2,1.7,2.1-0.3,3.2-0.2c1.8,0.1,3.6-0.8,5.5-1.2
		c0.1,0.3,0.2,0.6,0.3,0.9c-1.7,0.5-3.4,1-5,1.5c-0.3,0.1-0.6,0.3-0.9,0.5c-0.4,0.2-0.8,0.8-1,0.7c-2.5-0.9-4.7,1.3-7.1,0.7
		c-2.4-0.7-4.8-1.5-7.1-2.5c-0.7-0.3-1.1-1.4-1.3-1.6c-1.8-0.4-3-0.5-4.1-1C8.3,25.7,8.1,24.6,7.7,23.9z M7.9,34.7
		c2.6-2.5,5.2-1.1,7.6-0.7c0.8,0.1,1.4,1.8,2,1.8c0.8,0,1.6-1.2,2.5-1.6c0.7-0.2,1.4,0.1,2.1,0.2c0,0-0.2,0-0.2,0V35h0.1h0
		c0,0,0.1-0.2,0.1-0.2c1.7-0.2,3.5-0.6,5.2-0.8c0.4,0,0.8,0.1,1.2,0.3c0.5,0.3,1,0.7,1.5,1.1c0.3-0.7,0.6-1.4,1.1-2.6
		c0.6,1.2,1.1,2.1,1.8,3.5c-3.4,0.7-6.4,1.3-9.3,1.9c-0.1-0.4-0.3-0.5-0.4-0.8c-0.4-1-0.7-2.5-1-2.5c0,0,0,0,0,0c0,0,0-0.2,0-0.2
		c-0.2,1-0.5,1.8-0.8,3c0,0.2-0.1,0.3-0.1,0.5c-3.8,0.3-7.9,0.1-11.9-1.1C8.8,36.9,8.4,35.5,7.9,34.7z"/>
	<polygon fill="#722C09" points="22.4,34.5 22.4,34.5 22.4,34.5 	"/>
	<path fill="#4C200C" d="M80.7,40.9c-1.1-3.1-1.5-6.3-0.6-9.6c0.1-0.4,0-1.1-0.2-1.2c-2-1.1-0.9-2.6-0.3-3.7c1-1.7,0.5-2.7-0.9-3.9
		c-5.7-4.8-12-8.7-18.5-12.1c-1.4,0.7-2.6,1.3-3.6,2.1c2.1,0.8,3.9,2.2,6,3c-0.6,1.7-1.2,3.3,1.6,2.5c0.5-0.1,1.3,0.5,1.9,0.8
		c0,0,0,0,0,0l0,0l0,0l0,0c0,0,0,0,0,0c0.4-0.1,0.8-0.2,1.1-0.2c0.1,0,0.3,0,0.4,0c1.5,0.3,2.6,1.7,2.4,3.5c1.2,0.1,2.4,0,3.4,0.4
		c1,0.3,2.3,0.8,2.6,1.6c0.4,1,0,2.4-0.3,3.7c-0.5-1.4-0.2-3.4-2.1-2c-2-1.2-3.7-2.2-5.6-3.3c0.9-1.3,1.4-2.4-0.8-2.7
		c-0.2,0-0.3-0.1-0.5-0.2c-0.1-0.1-0.2-0.2-0.3-0.2c-0.1-0.1-0.3-0.3-0.4-0.4c0,0,0,0,0,0l0,0l0,0l0,0c0,0,0,0,0,0
		c-0.4,0.3-0.8,0.7-1.3,1.1c-0.2,0.1-0.3,0.3-0.5,0.5c-1.4-0.9-2.9-1.9-4.3-2.9c-0.4-0.2-0.9-0.3-1.3-0.3c-1.8-0.3-3.6-0.6-5.4-0.8
		c-0.4,0.9-0.6,1.7-0.7,2.5c0.1,0,0.2,0.1,0.3,0.1c4.2,1.5,8.3,3.3,12.6,5.1c-4.2-0.7-8.4-1.5-12.5-2c0.4,1.3,1.1,2.4,1.7,3.2
		c1.9,0.2,4,0.7,6.1,1.5c0,1.2-0.2,2.6,1.1,2.3c0.2,0,0.4-0.1,0.7-0.3c0.1-0.1,0.3-0.1,0.4-0.2c0.2-0.1,1,0.8,1.5,1.2
		c-0.2,0.3-0.4,0.6-0.5,0.9c-0.8-0.2-1.6-0.5-2.4-0.7c0.9,0.9,1.6,2.1,2.1,3.5c4.2,1,8.4,2.4,12.6,3.6c0.5,0.1,1.1,0.6,1.2,1.1
		c0.4,1.4,0.6,2.8,1,4.7c-1.3-0.5-2.2-0.8-3.1-1.3c-3.6-1.9-7.3-3.5-11.2-4.4c0,0.3,0,0.7-0.1,1.1c-0.1,0.7-0.2,1.4-0.4,2
		c0.8,0.1,1.6,0.2,2.4,0.4c2.9,0.7,5.7,2.2,8.6,3c2.1,0.6,2.8,1.9,3.1,3.8c0.1,0.9,0.4,1.7,0.8,3.1c-0.8-0.7-2-1.2-2.2-1.9
		c-0.3-1.5-1.1-1.1-2.1-1.4c-1.3-0.3-3.5,0-3.4-2.6c0-0.8-1.1-1.6-1.6-2.4c-0.7,0.7-1.5,1.9-2.4,2.1c-1.1,0.3-2.4-0.2-3.6-0.5
		c-0.4-0.1-0.8-0.2-1.1-0.4c-0.8,1.1-1.8,2-2.8,2.8c1.1,0,2.2,0.1,3.2,0.4c5.3,1.3,10.5,3,15.5,5c2.1,0.8,2.3,0,2.9-1.4
		C81.9,47.2,81.8,44.1,80.7,40.9z M74.1,33.3c-2.2-0.6-4.1-1.1-6.2-1.6c1.5-3-2.1-2-2.9-3.9c2,0.5,3.6,0.8,5.3,1.2
		c-0.3,0.6-0.6,1-0.9,1.6c2.4,0.6,4.8-1.6,6.6,0.6c0.7,0.9,0.8,2.3,0.8,3.6C75.9,33.9,75.7,31.4,74.1,33.3z"/>
	<path fill="#F4626C" d="M55.1,32.4c-2.5,0-5.1,0.1-7.5,0.9c-3.5,1-6.8,2.6-10.1,4.1c-5.9,2.5-12,4.1-18.4,3.8
		c-3.2-0.1-6.5-0.4-9.7-0.5c-0.6,2.6-0.1,4.3,1.4,4.5c3.3,0.4,6.5,0.7,9.8,0.9c7.9,0.4,14.9-2.7,22-5.8c3.3-1.4,6.7-2.9,10.3-3.5
		c3.9-0.6,7.8-0.4,11.4,0.5c0-1.4-0.2-2.6-0.6-3.7C60.8,32.8,58,32.4,55.1,32.4z"/>
	<path fill="#C63446" d="M75.3,41.6c0.8,0.5,1.8,0.7,3.1,1.3c-0.4-1.9-0.6-3.4-1-4.7c-0.1-0.4-0.7-0.9-1.2-1.1
		c-4.2-1.2-8.3-2.6-12.6-3.6c0.4,1.1,0.6,2.3,0.6,3.7C68,38.1,71.7,39.6,75.3,41.6z"/>
	<path fill="#D34411" d="M54.3,42.6c-0.4-0.4-0.8-0.7-1.2-1.1c-0.3-0.3-0.6-0.6-0.9-0.9c-0.2-0.2,0.2-0.9,0.3-1.3
		c-0.5,0.3-1,0.4-1.3,0.8c-0.3,0.4-0.3,1-0.5,1.6c-0.5-0.3-1.1-0.7-1.3-0.8c-0.8,0.1-1.6,0.3-2.3,0.4c-0.5,0.1-1.2,0-1.4,0.2
		c-1.1,1.6-2.9,1.4-4.4,2c-4.4,1.6-8.8,3.4-12.6,6.3c-1.6,1.2-2.9,0.9-3.9-0.8c-0.2-0.4-0.7-0.8-1.1-0.8c-1.7,0-3.4,0.1-5.4,0.2
		c0.8,0.6,1.2,0.9,1.7,1.2c0,0,0,0,0,0l0,0c0,0,0,0,0,0c1.3-1.6,2.2-0.5,3.2,0.5c-1.4,1.2-2.4,1-3.2-0.5c0,0,0,0,0,0c0,0,0,0,0,0
		c-0.5,1-0.9,1.5-1.4,1.3c-0.2-0.1-0.3-0.2-0.5-0.4c-0.2-0.2-0.3-0.5-0.5-0.8c-0.4-0.8-1.3-1.4-2-2.1c-0.7,0.8-1.1,1.3-1.5,1.8
		c-0.3-0.3-0.4-0.5-0.6-0.7c-0.5-0.4-1-0.9-1.4-1.3c-0.6,0.7-1.4,1.3-1.7,2.1c-0.1,0.3,0.8,1.4,1.4,1.4c1.4,0.2,2.8,0,3.9,0
		c1.3,0.5,2.4,1.3,3.6,1.4c4,0.5,7.9,1,11.9,1.2c6.2,0.4,11.6-1.4,16.3-5.5c0.1-0.1,0.2-0.4,0.3-0.5c-0.6-0.3-1-0.6-1.5-0.9
		c0.1-0.3,0.1-0.4,0.2-0.4c1.9-0.4,4,0.8,5.7-1.3c0.3-0.3,0.7-0.5,1.2-0.6c0.8-0.2,1.8-0.3,2.6-0.5C55.3,43.5,54.8,43,54.3,42.6z
		 M36,49.2c-0.3-2.5,0.1-2.8,3.4-2.5C38,47.7,37,48.4,36,49.2z"/>
	<rect x="55.8" y="43.9" fill="#D34411" width="0" height="0"/>
	<path fill="#D34411" d="M55.8,43.9L55.8,43.9C55.8,43.9,55.8,43.9,55.8,43.9L55.8,43.9C55.8,43.9,55.8,43.9,55.8,43.9
		C55.8,43.9,55.8,43.9,55.8,43.9z"/>
	<path fill="#D34411" d="M20,49.6C20,49.6,20,49.6,20,49.6L20,49.6C20,49.6,20,49.6,20,49.6C20,49.6,20,49.6,20,49.6
		C20,49.6,20,49.6,20,49.6z"/>
	<path fill="#D34411" d="M20,49.6C20,49.6,20,49.6,20,49.6C20,49.6,20,49.6,20,49.6C20,49.6,20,49.6,20,49.6z"/>
	<path fill="#C63446" d="M65.4,24c-4.3-1.7-8.4-3.5-12.6-5.1c-0.1,0-0.2-0.1-0.3-0.1c-0.1,1.1,0.1,2.2,0.4,3.2
		C57,22.6,61.1,23.4,65.4,24z"/>
	<path fill="#F4626C" d="M48.3,18.4c-3.4,0.2-6.8,0.6-10.2,1.1c-7.2,1.1-14.2,0.7-21.1-1.6c-2.6-0.9-5.1-2-7.8-3.1
		c-1.3,3.2-1.3,4.5,0.4,5.1c3.8,1.4,7.6,3.1,11.5,4c7.4,1.8,14.8,1.3,22.1-1.3c2.1-0.8,4.4-1.2,6.6-1c1.1,0.1,2.1,0.2,3.1,0.4
		c-0.3-1-0.5-2-0.4-3.2C51.1,18.4,49.6,18.3,48.3,18.4z"/>
	<path fill="#D34411" d="M51.7,11.8c-0.2-0.2-0.7-0.6-1.2-1.1c-2.2,1.8-4.1,1.6-5.8-0.5c-1.3,0.4-2.5,0.9-3.9,1.3
		c-1.3,0.4-2.4,1-2.5,2.5c0.7-0.4,1.4-0.8,2.3-1.4c-0.1,2.2-1.3,2.9-2.7,3.4c-0.2,0.1-0.6-0.2-0.9-0.3c0.4-0.5,0.8-1.1,1.2-1.6
		c0,0,0,0,0,0l0,0c-1-0.4-1.9-0.7-2.9-1.1c-0.1,0.2-0.2,0.4-0.3,0.6c0.4,0.3,0.7,0.6,0.7,0.7c-0.2,0.3-0.4,0.5-0.6,0.7
		c-0.5,0.7-1,1.3-1.4,1.9c1.9-0.2,3.9-0.4,5.8-0.4c1.7-0.1,2.5-0.8,2.5-2.6c0-0.5-0.1-1,0.1-1.5c0.1-0.4,0.7-1,0.8-1
		c0.6,0.2,1.3,0.6,1.5,1c0.3,1.1,0.3,2.3,0.4,3.6c1.1-0.1,1.9-0.2,2.7-0.2c1.1,0,2.3,0,3.4,0.1c0.7,0.1,1.4,0.2,2.1,0.3
		c0.6-1.3,1.7-2.6,3.4-3.8C55.1,11.9,53.5,11.6,51.7,11.8z M50.7,15.8c-0.4-0.8-0.7-1.4-1-2c0.5-0.1,1.2-0.6,1.4-0.4
		c0.7,0.5,1.1,1.3,1.7,2C52.2,15.5,51.6,15.6,50.7,15.8z"/>
	<path fill="#993A23" d="M53.1,16.3c1.8,0.3,3.6,0.6,5.4,0.8c0.5,0.1,1,0.1,1.3,0.3c1.5,0.9,3,1.9,4.3,2.9c0.2-0.2,0.4-0.3,0.5-0.5
		c0.5-0.4,0.9-0.8,1.3-1.1c-0.6-0.3-1.4-0.9-1.9-0.8c-2.8,0.7-2.2-0.8-1.6-2.5c-2.1-0.8-3.9-2.2-6-3C54.8,13.7,53.7,15,53.1,16.3z"
		/>
	<polygon fill="#D34411" points="66.1,18.8 66.1,18.8 66.1,18.8 	"/>
	<path fill="#D34411" d="M33.8,17L33.8,17C33.8,17,33.8,17,33.8,17C33.8,17,33.8,17,33.8,17C33.8,17,33.8,17,33.8,17z"/>
	<path fill="#D34411" d="M38.2,14.1c-1-0.4-1.9-0.7-2.9-1.1C36.3,13.4,37.2,13.8,38.2,14.1L38.2,14.1z"/>
	<path fill="#D34411" d="M33.8,17L33.8,17C33.8,17,33.8,17,33.8,17C33.8,17,33.8,17,33.8,17z"/>
	<path fill="#D34411" d="M66.1,18.8C66.1,18.8,66,18.8,66.1,18.8C66,18.8,66,18.8,66.1,18.8C66,18.8,66,18.8,66.1,18.8
		C66,18.8,66,18.8,66.1,18.8z"/>
	<path fill="#D34411" d="M66,18.8L66,18.8C66,18.8,66,18.8,66,18.8C66,18.8,66,18.8,66,18.8C66,18.8,66,18.8,66,18.8z"/>
	<path fill="#993A23" d="M60.6,26.7c-2.1-0.9-4.2-1.4-6.1-1.6c0.2,0.3,0.5,0.6,0.6,0.8c0.1,0,0.2,0.1,0.3,0.1
		c0.1,0.1,0.2,0.2,0.3,0.3c0.8,0.3,3.6,1.3,5.7,3.5c0.8,0.2,1.6,0.5,2.4,0.7c0.2-0.3,0.4-0.6,0.5-0.9c-0.5-0.4-1.3-1.3-1.5-1.2
		c-0.2,0.1-0.3,0.2-0.4,0.2c-0.3,0.1-0.5,0.2-0.7,0.3C60.4,29.4,60.6,27.9,60.6,26.7z"/>
	<path fill="#D34411" d="M56.8,28.1c-0.4,0.3-0.8,0.6-0.9,0.5c-0.9-0.5-1.8-1.1-2.7-1.8c-0.1,0,0.2-0.8,0.4-0.8
		c0.5-0.1,1.1-0.2,1.5,0c-0.2-0.2-0.4-0.5-0.6-0.8c-1.2-0.1-2.4,0-3.3,0.2c-0.3,0.1-0.5,0.1-0.7,0.2c-0.3,0.1-0.6,0.3-0.9,0.5
		c-0.6-0.4-1.3-0.7-1.9-1.1c-1.4,2.6-3.4,3-5.8,1c-1.6,1.5-3.2,3.1-4.9,4.7c0.1,0.1,0.2,0.2,0.3,0.3c0.4-0.3,0.9-0.7,1.3-1.1
		c0.2,0.1,0.4,0.3,0.6,0.4c-0.4,0.9-0.8,1.9-1.4,2.7c-0.3,0.4-1,0.6-1.6,0.8c0-0.5,0.2-1.1,0-1.4c-0.3-0.5-0.8-1-1.3-1.1
		c-0.4-0.1-0.9,0.5-1.4,0.8c0.6,0.3,1,0.5,1.5,0.7c0,0.2,0.1,0.5,0.1,0.7c-0.6,0-1.1,0-1.8,0c0.3,0.9,0.4,1.5,0.6,2.1
		c1-0.4,1.8-0.7,2.6-1c3.7-1.5,3.7-1.5,3.5-5.6c0-0.4,0.4-1.1,0.7-1.1c0.5,0,1.3,0.2,1.5,0.6c0.6,1.1,0.9,2.3,1.3,3.3
		c2-0.6,3.8-1.8,5.4-1.6c3,0.3,5.7-0.2,8.4-1.2c0.3-0.1,0.8,0,1.2,0.2c0.9,0.3,1.8,0.5,2.7,0.8c-2.1-2.3-4.9-3.3-5.7-3.5
		C56.1,26.9,56.4,27.5,56.8,28.1z M48.6,29.4c-0.3-0.1-0.4-0.9-0.7-1.3c0.6-0.2,1.2-0.3,2-0.6c0.5,0.8,0.9,1.3,1.3,1.9
		C50.4,29.4,49.5,29.5,48.6,29.4z"/>
	<path fill="#D34411" d="M60.6,26.7c0,1.2-0.2,2.6,1.1,2.3C60.4,29.4,60.6,27.9,60.6,26.7c-2.1-0.9-4.2-1.4-6.1-1.6c0,0,0,0,0,0
		C56.4,25.3,58.5,25.9,60.6,26.7z"/>
	<path fill="#D34411" d="M54.5,25.2C54.5,25.2,54.5,25.2,54.5,25.2c-1.2-0.1-2.4,0-3.3,0.2C52.2,25.1,53.3,25.1,54.5,25.2z"/>
	<path fill="#D34411" d="M30.5,15.8c-0.4-0.7-0.8-1.3-1.3-2.3c-3.5,0.9-7-3.1-11.3-0.3c0.6-2.9-1.6-3-3.1-3.8c-1.6-1-3.2-1.5-5.5,0
		c0.5,0.9,0.8,2.3,1.6,2.7c3.4,1.6,7,3,10.9,4.5c0.2-1.4,0.3-2.1,0.5-2.7c0.1-0.3,0.6-0.5,0.9-0.7c0.2,0.3,0.5,0.7,0.5,1
		c-0.1,0.7-0.3,1.4-0.6,2.7c3.7,0,7.2,0,10.6,0c-0.5-1.1-1-2.2-1.5-3.3C31.5,14.6,31,15.2,30.5,15.8z"/>
	<path fill="#D34411" d="M32.3,13.7c0.5,1.1,1,2.2,1.5,3.3c0,0,0,0,0,0C33.3,15.9,32.8,14.8,32.3,13.7z"/>
	<path fill="#D34411" d="M33.8,17C33.8,17,33.8,17,33.8,17C33.8,17,33.8,17,33.8,17C33.8,17,33.8,17,33.8,17
		C33.8,17,33.8,17,33.8,17z"/>
	<polygon fill="#D34411" points="33.8,17 33.8,17 33.8,17 	"/>
	<path fill="#D34411" d="M14.3,28.6c2.3,1,4.7,1.8,7.1,2.5c2.4,0.6,4.6-1.6,7.1-0.7c0.2,0.1,0.7-0.5,1-0.7c0.3-0.2,0.6-0.4,0.9-0.5
		c1.7-0.5,3.4-1,5-1.5c-0.1-0.3-0.2-0.6-0.3-0.9c-1.8,0.5-3.7,1.3-5.5,1.2c-1.1,0-2,2-3.2,0.2c-0.5-0.7-1.6-1-2.4-1.4
		c-0.1,0.2-0.3,0.4-0.4,0.5c0.2,0.7,0.4,1.4,0.6,2.1c-0.2,0.1-0.4,0.3-0.7,0.4c-0.7-1-1.5-2-2.6-3.5c-1-0.3-2.8-0.7-4.5-1.2
		c-0.7-0.2-1.6-0.1-2.2-0.4c-1.3-0.6-2.5-1.7-3.9-2.1c-0.8-0.2-1.8,0.7-2.8,1c0.4,0.7,0.6,1.8,1.3,2.1c1,0.5,2.3,0.6,4.1,1
		C13.2,27.3,13.6,28.3,14.3,28.6z M18,26.4c0.7,0.5,1.4,1,2.2,1.4c-0.2,0.3-0.3,0.6-0.5,0.9c-0.7-0.4-1.5-0.7-2.2-1.1
		C17.4,27.5,17.8,26.8,18,26.4z"/>
	<path fill="#D34411" d="M58.3,39.1c-1.5-0.7-3.8,0-5.7,0.2c2,0.9,3.5,2.2,3.3,4.6c1.4-0.4,2.8-0.8,4.2-1.2c0.6,0.2,1.2,0.5,1.9,0.8
		c0.1-0.2,0.3-0.4,0.4-0.6c-0.3-0.2-0.4-0.7-0.7-1c0.5-0.1,1-0.2,1.4-0.4c0.2-0.4,0.3-0.8,0.5-1.3C61.8,40.1,60.1,39.9,58.3,39.1z"
		/>
	<path fill="#993A23" d="M63.5,41.4c0.4-0.1,0.8-0.1,1.2-0.2c-0.1,0.6,0,1.4-0.3,1.7c-0.5,0.3-1.3,0.3-1.9,0.2
		c-0.1,0-0.1-0.1-0.2-0.1c-0.1,0.2-0.3,0.4-0.4,0.6c0.4,0.1,0.7,0.3,1.1,0.4c1.2,0.3,2.5,0.8,3.6,0.5c0.9-0.2,1.7-1.4,2.4-2.1
		c0.5,0.7,1.6,1.6,1.6,2.4c0,2.6,2.1,2.3,3.4,2.6c1,0.2,1.8-0.2,2.1,1.4c0.1,0.7,1.4,1.2,2.2,1.9c-0.3-1.4-0.6-2.2-0.8-3.1
		c-0.3-1.9-1-3.2-3.1-3.8c-2.9-0.8-5.7-2.3-8.6-3c-0.8-0.2-1.6-0.3-2.4-0.4c-0.1,0.4-0.3,0.9-0.5,1.3C63.3,41.5,63.4,41.4,63.5,41.4
		z"/>
	<path fill="#D34411" d="M21.4,38.1c0-0.2,0.1-0.3,0.1-0.5c0.3-1.2,0.5-2.1,0.8-3.1c-0.8-0.1-1.7-0.5-2.3-0.2
		c-0.9,0.3-1.6,1.6-2.5,1.6c-0.7,0-1.3-1.7-2-1.8c-2.4-0.4-5-1.9-7.6,0.7c0.5,0.8,0.9,2.1,1.6,2.4C13.5,38.3,17.7,38.4,21.4,38.1z"
		/>
	<path fill="#D34411" d="M22.4,34.5C22.4,34.5,22.4,34.5,22.4,34.5C22.4,34.5,22.4,34.5,22.4,34.5C22.4,34.5,22.4,34.5,22.4,34.5z"
		/>
	<path fill="#D34411" d="M22.4,34.5C22.4,34.5,22.4,34.5,22.4,34.5C22.4,34.5,22.4,34.5,22.4,34.5C22.4,34.5,22.4,34.5,22.4,34.5
		C22.4,34.5,22.4,34.5,22.4,34.5z"/>
	<path fill="#D34411" d="M23.7,38.3c2.9-0.6,5.9-1.2,9.3-1.9c-0.7-1.4-1.2-2.3-1.8-3.5c-0.5,1.2-0.8,1.9-1.1,2.6
		c-0.5-0.4-1-0.8-1.5-1.2c-0.3-0.2-0.8-0.4-1.1-0.3c-1.7,0.2-3.4,0.4-5.2,0.7c0.3,0.9,0.6,1.7,1,2.7C23.5,37.6,23.6,37.9,23.7,38.3z
		"/>
	<path fill="#D34411" d="M22.4,34.5C22.4,34.5,22.4,34.5,22.4,34.5C22.4,34.5,22.4,34.5,22.4,34.5C22.4,34.5,22.4,34.5,22.4,34.5
		C22.4,34.5,22.4,34.5,22.4,34.5z"/>
	<path fill="#D34411" d="M22.4,34.5L22.4,34.5C22.4,34.5,22.4,34.5,22.4,34.5L22.4,34.5C22.4,34.5,22.4,34.5,22.4,34.5
		C22.4,34.5,22.4,34.5,22.4,34.5z"/>
	<path fill="#993A23" d="M69.5,30.6c0.3-0.5,0.5-1,0.9-1.6c-1.8-0.4-3.3-0.8-5.3-1.2c0.8,1.9,4.4,0.9,2.9,3.9c2.1,0.5,3.9,1,6.2,1.6
		c1.7-1.9,1.8,0.6,2.8,1.6c-0.1-1.3-0.1-2.7-0.8-3.6C74.3,29,71.8,31.2,69.5,30.6z"/>
	<path fill="#993A23" d="M66.5,19.3c0.1,0.1,0.2,0.2,0.3,0.2c0.1,0.1,0.3,0.2,0.5,0.2c2.1,0.3,1.7,1.4,0.8,2.7
		c1.9,1.1,3.6,2.1,5.6,3.3c1.9-1.4,1.7,0.7,2.1,2c0.4-1.3,0.8-2.7,0.3-3.7c-0.3-0.8-1.7-1.3-2.6-1.6c-1.1-0.3-2.3-0.3-3.4-0.4
		c0.2-1.8-0.9-3.2-2.4-3.5c-0.1,0-0.2,0-0.4,0c-0.4,0-0.8,0-1.1,0.2C66.2,19,66.4,19.1,66.5,19.3z"/>
	<path fill="#D34411" d="M66.8,19.5c-0.1-0.1-0.2-0.2-0.3-0.2C66.6,19.3,66.7,19.4,66.8,19.5z"/>
	<path fill="#D34411" d="M66.1,18.8C66.1,18.8,66.1,18.8,66.1,18.8C66.1,18.8,66.1,18.8,66.1,18.8L66.1,18.8L66.1,18.8
		C66.1,18.8,66.1,18.8,66.1,18.8z"/>
	<path fill="#D34411" d="M66.1,18.8C66.1,18.8,66.1,18.8,66.1,18.8C66.1,18.8,66.1,18.8,66.1,18.8L66.1,18.8
		C66,18.8,66,18.8,66.1,18.8C66,18.8,66.1,18.8,66.1,18.8z"/>
	<path fill="#D34411" d="M67.2,18.7c-0.4,0-0.8,0-1.1,0.2l0,0C66.5,18.7,66.8,18.7,67.2,18.7z"/>
	<polygon fill="#D34411" points="66.1,18.8 66.1,18.8 66.1,18.8 	"/>
	<path fill="#D34411" d="M66,18.8C66,18.8,66.1,18.8,66,18.8L66,18.8L66,18.8C66.1,18.8,66,18.8,66,18.8z"/>
	<path fill="#722C09" d="M52.3,40.6c0.3,0.3,0.6,0.6,0.9,0.9c0.4,0.4,0.8,0.7,1.2,1.1c0.5,0.4,1,0.9,1.5,1.3c0,0,0,0,0,0l0,0l0,0
		l0,0c0,0,0,0,0,0c0.2-2.5-1.2-3.8-3.3-4.6c0,0,0,0,0,0c0,0,0,0,0,0C52.4,39.8,52.1,40.4,52.3,40.6z"/>
	<path fill="#722C09" d="M55.8,43.9C55.8,43.9,55.8,43.9,55.8,43.9L55.8,43.9C55.8,43.9,55.8,43.9,55.8,43.9z"/>
	<path fill="#722C09" d="M54.3,42.6c-0.4-0.4-0.8-0.7-1.2-1.1C53.5,41.9,53.9,42.2,54.3,42.6z"/>
	<rect x="55.8" y="43.9" fill="#722C09" width="0" height="0"/>
	<path fill="#722C09" d="M52.5,39.3C52.5,39.3,52.5,39.3,52.5,39.3C52.5,39.3,52.5,39.3,52.5,39.3L52.5,39.3z"/>
	<path fill="#722C09" d="M55.8,43.9C55.8,43.9,55.8,43.9,55.8,43.9C55.8,43.9,55.8,43.9,55.8,43.9C55.8,43.9,55.8,43.9,55.8,43.9
		C55.8,43.9,55.8,43.9,55.8,43.9z"/>
	<path fill="#722C09" d="M55.8,43.9L55.8,43.9L55.8,43.9C55.8,43.9,55.8,43.9,55.8,43.9C55.8,43.9,55.8,43.9,55.8,43.9
		C55.8,43.9,55.8,43.9,55.8,43.9z"/>
	<path fill="#722C09" d="M55.8,43.9C55.8,43.9,55.8,43.9,55.8,43.9C55.8,43.9,55.8,43.9,55.8,43.9C55.8,43.9,55.8,43.9,55.8,43.9
		C55.8,43.9,55.8,43.9,55.8,43.9L55.8,43.9z"/>
	<path fill="#722C09" d="M52.6,39.3C52.6,39.3,52.5,39.3,52.6,39.3L52.6,39.3C52.5,39.3,52.6,39.3,52.6,39.3z"/>
	<path fill="#722C09" d="M55.8,43.9C55.8,43.9,55.8,43.9,55.8,43.9C55.8,43.9,55.8,43.9,55.8,43.9C55.8,43.9,55.8,43.9,55.8,43.9z"
		/>
	<path fill="#722C09" d="M36,49.2c1-0.8,2-1.5,3.4-2.5C36.1,46.4,35.8,46.7,36,49.2z"/>
	<path fill="#722C09" d="M23.2,50.2c-1.1-1-1.9-2.2-3.2-0.5C20.8,51.2,21.8,51.4,23.2,50.2z"/>
	<path fill="#722C09" d="M20,49.6C20,49.6,20,49.6,20,49.6L20,49.6C20,49.6,20,49.6,20,49.6z"/>
	<polygon fill="#722C09" points="20,49.6 20,49.6 20,49.6 	"/>
	<path fill="#722C09" d="M37,15.7c0.3,0.1,0.7,0.4,0.9,0.3c1.5-0.5,2.6-1.3,2.7-3.4c-1,0.6-1.6,1-2.3,1.4c0,0-0.1,0.1-0.1,0.1
		C37.8,14.7,37.4,15.2,37,15.7z"/>
	<path fill="#722C09" d="M51.1,13.4c-0.2-0.2-0.9,0.2-1.4,0.4c0.3,0.6,0.6,1.2,1,2c0.9-0.2,1.5-0.3,2.1-0.4
		C52.2,14.7,51.8,14,51.1,13.4z"/>
	<path fill="#722C09" d="M48,28c0.2,0.5,0.4,1.3,0.7,1.3c0.8,0.2,1.7,0,2.6,0c-0.4-0.5-0.8-1.1-1.3-1.9C49.2,27.7,48.6,27.9,48,28z"
		/>
	<path fill="#722C09" d="M53.6,26c-0.2,0-0.4,0.8-0.4,0.8c0.9,0.6,1.7,1.2,2.7,1.8c0.1,0.1,0.4-0.2,0.9-0.5c-0.4-0.6-0.7-1.2-1-1.7
		c-0.2-0.1-0.3-0.1-0.3-0.1s-0.1-0.1-0.3-0.3C54.7,25.9,54.1,26,53.6,26z"/>
	<path fill="#722C09" d="M55.7,26.4c-0.1-0.1-0.2-0.2-0.3-0.3c-0.1-0.1-0.2-0.1-0.3-0.1c0.2,0.2,0.3,0.3,0.3,0.3
		S55.6,26.4,55.7,26.4z"/>
	<path fill="#E5A338" d="M20.1,27.8c-0.7-0.5-1.4-1-2.2-1.4c-0.2,0.4-0.6,1.2-0.6,1.2c0.7,0.4,1.5,0.8,2.2,1.1
		C19.8,28.4,20,28.1,20.1,27.8z"/>
	<path fill="#722C09" d="M61.7,41.9c0.2,0.3,0.4,0.8,0.7,1c0.3-0.4,0.5-0.9,0.8-1.4C62.6,41.6,62.2,41.8,61.7,41.9z"/>
	<path fill="#722C09" d="M64.4,42.9c0.3-0.2,0.2-1.1,0.3-1.7c-0.4,0.1-0.8,0.1-1.2,0.2c-0.1,0-0.3,0.1-0.4,0.1
		c-0.2,0.5-0.5,1-0.8,1.4c0.1,0.1,0.1,0.1,0.2,0.1C63.2,43.2,64,43.2,64.4,42.9z"/>
</g>
<path d="M13.9,51.7L13.9,51.7z"/>
<g opacity="0.15">
	<path d="M25.7,36C25.7,36,25.7,36,25.7,36c-0.3,1.3-0.5,1.9-0.8,3.1C25.2,37.9,25.4,37.3,25.7,36z"/>
	<rect x="67.9" y="20.6" width="0" height="0"/>
	<rect x="58" y="45.7" width="0" height="0"/>
	<polygon points="67.9,20.6 67.9,20.6 67.9,20.6 	"/>
	<polygon points="36.7,18.8 36.7,18.8 36.7,18.8 	"/>
	<polygon points="67.9,20.6 67.9,20.6 67.9,20.6 	"/>
	<path d="M82.1,52.1c-0.5,1.4-0.8,2.2-2.8,1.4c-4.9-2-9.9-3.7-15-5c-1.1-0.3-2.1-0.4-3.1-0.4c-3.2,0-6.3,1.3-8.8,3.4
		c-7.2,6.2-15.2,7.6-24.1,5.9c-3.9-0.8-7.9-1.2-11.9-1.9c-3.5-0.6-4.3-1.4-4.7-5c-0.7-6-1.3-12-1.9-18c-0.1-0.6,0-1.3,0.1-2.2
		c0.9,0.1,1.5,0.2,2.1,0.3c-2.9-1.4-3-3.9-2.5-6.6c0.9-5.6,1.8-11.2,2.7-16.8c0.1-0.9,0.5-1.8,0.8-3.1c1,0.6,1.9,0.9,2.6,1.5
		c4.7,3.4,10,5.2,15.6,6.3c3.9,0.8,7.9,0.3,11.3-1.4c6.5-3.2,12.6-2.1,18.6,1.2c0.3,0.2,0.7,0.4,1,0.5c6.3,3.5,12.4,7.3,17.9,12.1
		c1.3,1.2,1.8,2.1,0.9,3.9c-0.6,1.1-1.7,2.6,0.3,3.7c0.2,0.1,0.3,0.8,0.2,1.2c-0.8,3.3-0.5,6.5,0.6,9.6
		C83.1,45.8,83.2,48.9,82.1,52.1z"/>
</g>
</svg>
