<?xml version="1.0" encoding="utf-8"?>
<!-- Generator: Adobe Illustrator 19.1.0, SVG Export Plug-In . SVG Version: 6.00 Build 0)  -->
<svg version="1.1" id="Layer_1" xmlns="http://www.w3.org/2000/svg" xmlns:xlink="http://www.w3.org/1999/xlink" x="0px" y="0px"
	 width="50.5px" height="77px" viewBox="0 0 50.5 77" enable-background="new 0 0 50.5 77" xml:space="preserve">
<ellipse transform="matrix(0.9999 -1.721236e-02 1.721236e-02 0.9999 -1.1628 0.4554)" opacity="0.2" cx="25.9" cy="67.8" rx="22.6" ry="6.2"/>
<path opacity="0.45" fill="#D4DADD" d="M20.4,3.7c0,0-6.5,1-8.7,5.1S9.4,14,9.6,16.6c0.2,2.6,3.9,6.1,7.7,5.5s5.1,4.4,2.6,7.9
	c-2.5,3.6-1.2,3.2,1.9,0.2s12.4-8.3,7-15.7s-9.6,2-10.6-0.9c-1-2.9,1-7.5,8.2-8.6S25.2,1.6,20.4,3.7z"/>
<g>
	<g>
		<path fill="#83C3CC" d="M6.4,39c6.7-3,23.3-3.5,27.9,0.3c-0.8,0.9-1.4,1-2.6,0.5c-1.9-0.8-3.9-1.4-5.9-1.7c-5-0.7-10-0.2-14.9,0.8
			C9.9,39,9,39.3,8.2,39.7C7.3,40.1,6.8,39.8,6.4,39z"/>
		<path fill="#825F22" d="M9.3,40.6c2.5-1.3,5-0.6,7.4-1.1c2.3-0.5,4.9-0.1,7.3-0.1c0.3,0.5,0.5,0.9,0.8,1.3c0.3-0.4,0.6-0.8,1-1.3
			c1.3,0.3,2.8,0.6,4.3,0.9c0,0.1,0,0.3,0,0.4c-1.2,0.1-2.4,0.3-3.6,0.4c-1.3,0.1-2.7,0.3-4.2,0.1c0.3-0.3,0.6-0.7,0.9-1
			c-1.3-0.4-1.8-0.1-2.2,1.3c-0.4,0-0.9,0-1.2-0.1c0-0.7-0.1-1.3-0.1-1.8c-0.2,0-0.3,0-0.5,0c-0.2,0.6-0.4,1.2-0.5,1.8
			c-0.7-0.1-1.3-0.1-2-0.2c-0.1-0.3-0.3-0.9-0.6-1.1c-0.2-0.1-0.8,0.2-1.2,0.4c0.1,0.1,0.3,0.2,0.4,0.3c-1,0.1-2,0.2-2.9,0.2
			C11.4,41,10.5,40.8,9.3,40.6z"/>
		<path fill="#C12121" d="M33.2,52.6c-0.2-0.9-0.3-1.8-0.6-2.7c-0.3-1-0.3-1,0.8-1.1C34.2,51.8,34.1,52.4,33.2,52.6z"/>
		<path fill="#29ABE2" d="M29.4,58.5c0-0.7-0.1-1.5-0.1-2.2c0.3,0.1,0.8,0.1,1,0.3c0.8,0.7,0.4,1.4-0.2,1.9
			C29.8,58.5,29.6,58.5,29.4,58.5z"/>
	</g>
	<g>
		<path fill="#682323" d="M21.4,48.8c1.2,0,2.5-0.2,3.7-0.3c0.6,0,1.3,0.2,2.1,0.3c0.1-0.1,0.4-0.3,0.8-0.5c0-0.4,0-0.8-0.1-1.2
			c-6.1,1.2-12.2,1.1-18.3,0.3c-0.1,0-0.3,0-0.4-0.1c0,0.3,0,0.6,0,1C13.4,49,17.4,48.8,21.4,48.8z"/>
		<path fill="#682323" d="M27.4,62.6c0.1-0.4,0.1-0.9,0.1-1.3c-5.8,1.2-11.5,1.9-17.3,0.3c0.1,0.4,0.1,0.9,0.2,1.3
			c0.5,0.1,1.1,0.3,1.7,0.3C17.2,64.1,22.3,63.6,27.4,62.6z"/>
		<path d="M30,58.5c0.6-0.5,1-1.2,0.2-1.9c-0.2-0.2-0.7-0.2-1-0.3c0,0.7,0.1,1.5,0.1,2.2C29.6,58.5,29.8,58.5,30,58.5z"/>
		<path fill="#754C24" d="M28,50.5c0-0.1,0-0.3,0-0.4c-0.1,0-0.2-0.1-0.3-0.1C27.8,50.1,27.9,50.3,28,50.5z"/>
		<path fill="#E84646" d="M27.5,61.3c0.3-2.9,0.5-6.1,0.5-9.3c0-0.5,0-1,0-1.5c-0.1-0.2-0.2-0.4-0.3-0.5c0.1,0,0.2,0.1,0.3,0.1
			c0-0.6,0-1.1-0.1-1.6c-0.4,0.2-0.7,0.4-0.8,0.5c-0.8-0.1-1.4-0.3-2.1-0.3c-1.2,0-2.5,0.3-3.7,0.3c-4,0-8.1,0.2-12.2-0.4
			c0.1,5.1,0.5,9.6,1,13.3C16,63.2,21.7,62.5,27.5,61.3z"/>
		<path fill="#C12121" d="M27.5,61.3c1.4-0.3,2.9-0.6,4.3-1c-1.3-1.7-1.3-1.7-0.1-2.7c0.2,0.6,0.3,1.2,0.6,2.2
			c0.5-1.4,0.9-2.4,1.3-3.6c0,0-0.5-0.2-0.6,0c-0.7,1.2-1.4-0.1-2.1,0c-0.1,0-0.3-0.5-0.2-0.6c0.1-0.2,0.4-0.5,0.6-0.6
			c0.4,0,0.9,0.2,1.3,0.2c0.4,0,0.9-0.1,1.6-0.2c-0.9-0.7-1.4-1.2-2-1.6c-0.2,1.3-0.5,1.4-1.8,0.6c0.6-0.9,1.2-1.7,1.9-2.6
			c-0.8-1.3-1.5-1.3-2.3-0.4c0,0.6,0.1,1.1,0.1,1.5c-0.3,0-0.7,0.1-0.8-0.1c-0.4-0.5-0.7-1.1-1.2-1.9c0,0.5,0,1,0,1.5
			C28.1,55.2,27.8,58.4,27.5,61.3z M30.2,56.6c0.8,0.7,0.4,1.4-0.2,1.9c-0.2,0-0.4,0-0.7,0c0-0.7-0.1-1.5-0.1-2.2
			C29.6,56.4,30,56.4,30.2,56.6z"/>
		<path fill="#C12121" d="M29.5,50.6c-0.1-2,1.5-0.8,2.3-1.2c-0.5-0.5-0.8-0.9-1.2-1.3c0.4-0.1,0.8-0.1,1.3-0.2
			c-0.1-0.3-0.1-0.7-0.3-0.7c-0.4-0.2-2.5,0.6-3.7,1.2c0,0.5,0,1.1,0.1,1.6C28.7,50.3,29,50.4,29.5,50.6z"/>
		<path fill="#C12121" d="M6.5,47.9c0.3,0.4,0.6,0.9,0.9,1.3c-0.9,0.9-0.8,6.8,0.2,7.9c-1.1,1-1,1.8,0.5,2.6c-0.3,0.3-0.5,0.5-1,0.9
			c1,0.4,2.1,0.8,3.1,1c-0.4-3.7-0.8-8.2-1-13.3C8.3,48.2,7.4,48.1,6.5,47.9z"/>
		<path fill="#FFFFFF" d="M12,63.3c-0.6-0.1-1.1-0.2-1.7-0.3c0.3,2.5,0.7,4.6,0.9,6.2c3.7,1,7.5,1.5,11.3,1.3
			c1.2-0.1,2.4-0.2,3.6-0.5c0.4-2,0.8-4.6,1.1-7.4C22.3,63.6,17.2,64.1,12,63.3z"/>
		<path fill="#ABD3D6" d="M7.5,62.2c0,1.4,0.1,2.7,0,4c-0.1,1.4,0.6,2,1.8,2.3c0.7,0.2,1.3,0.4,2,0.6c-0.3-1.6-0.6-3.7-0.9-6.2
			C9.4,62.7,8.5,62.4,7.5,62.2z"/>
		<path fill="#ABD3D6" d="M33.8,62.4c0.2-0.6,0.4-1.1,0.5-1.6c-0.2-0.1-0.4-0.2-0.6-0.4c-0.5,0.5-1,1-1.4,1.4c-0.8,0-1.5,0-2.2,0.1
			c-0.9,0.2-1.8,0.4-2.8,0.6C27,65.4,26.6,68,26.2,70c2.6-0.6,4.9-1.7,7.1-3.4C35.5,65,35.5,64.2,33.8,62.4z"/>
		<path fill="#ABD3D6" d="M29,46.9c0.6-0.1,1.2-0.6,2-0.9c0.6,1.1,1.9,0.2,2.1-0.3c0.5-1.2,0.6-2.6,0.8-4.2
			c-2.1,0.4-4.2,0.7-6.3,0.9c0.2,1.5,0.3,3.1,0.4,4.7C28.3,47.1,28.6,47,29,46.9z"/>
		<path fill="#ABD3D6" d="M9.2,41.7c-0.8-0.2-1.7-0.4-2.5-0.6c-0.1,0.3-0.3,0.5-0.4,0.8c0,0.5,0.1,1,0,1.4c-0.2,2.9,0.2,3.7,2.9,4.1
			C9.2,45.6,9.2,43.7,9.2,41.7z"/>
		<path fill="#FFFFFF" d="M27.9,47.2c-0.1-1.6-0.2-3.2-0.4-4.7c-6.2,0.7-12.3,0.6-18.3-0.7c0,2,0,3.9,0,5.7c0.1,0,0.3,0,0.4,0.1
			C15.8,48.3,21.9,48.3,27.9,47.2z"/>
	</g>
	<g>
		<path fill="#FFFFFF" d="M43.4,51.6c0.4-1.8,0.1-3.8-0.5-5.6c-1.5-1.2-3.6-1.8-5.5-1c-1,0.4-1.8,0.9-1.7,2.2
			c0.1,1.2,0.5,1.8,1.8,2.1c2.3,0.6,2.8,2.9,1.1,4.5c-0.5,0.4-1.2,0.6-2,1c0.4,0.4,0.8,0.8,1.3,1.1C40,55.8,42.7,55,43.4,51.6z"/>
		<path fill="#83C3CC" d="M44.8,49.4C44.8,48.1,44,46.9,43,46c0.6,1.8,0.9,3.8,0.5,5.6c-0.7,3.4-3.4,4.2-5.6,4.2
			c0.9,0.5,1.9,0.7,3,0.5c2.1-0.5,3.1-2.2,3.6-4.1c0.1-0.4-0.2-0.9-0.3-1.1C44.5,50.5,44.9,49.9,44.8,49.4z"/>
	</g>
	<g>
		<path fill="none" d="M25.8,39.5c-0.4,0.5-0.7,0.9-1,1.3c-0.3-0.4-0.5-0.9-0.8-1.3c-2.4,0-4.9-0.4-7.3,0.1c-2.2,0.5-4.6-0.1-7,0.9
			c0.6,0.2,1.3,0.3,1.8,0.4c0.4,0,1,0.1,1.6,0.2c0.7,0,1.5-0.1,2.2-0.2c-0.1-0.1-0.3-0.2-0.4-0.3c0.4-0.1,1-0.5,1.2-0.4
			c0.3,0.2,0.5,0.8,0.6,1.1c0.4,0,0.9,0.1,1.3,0.1c0.2,0,0.4,0,0.7,0c0.2-0.5,0.3-1.1,0.5-1.7c0.2,0,0.3,0,0.5,0
			c0,0.6,0.1,1.1,0.1,1.7c0.3,0,0.5,0,0.8,0c0.2,0,0.3,0,0.5,0c0.3-1.2,0.9-1.6,2.1-1.3c-0.3,0.3-0.6,0.9-0.9,0.9c0,0,0,0,0,0
			c3.1,0,7.2-0.4,7.2-0.4s0.2,0.1,0.6,0.1c0-0.1,0-0.2,0-0.3C28.6,40.1,27.1,39.8,25.8,39.5z"/>
		<path fill="none" d="M7.8,39.9c-0.6-0.2-1.1-0.4-1.1-0.4S7.2,39.6,7.8,39.9c0.1,0,0.3-0.1,0.4-0.1c0.8-0.4,1.7-0.7,2.5-0.8
			c4.9-1,9.9-1.5,14.9-0.8c2,0.3,4.1,0.8,5.9,1.7c0.6,0.3,1.1,0.4,1.5,0.3c0.1-0.1,0.2-0.1,0.3-0.2c-0.1,0.1-0.2,0.1-0.3,0.2
			c0.4-0.1,0.8-0.3,1.1-0.8C29.6,35.5,13,35.9,6.4,39C6.8,39.7,7.2,40,7.8,39.9z"/>
		<path fill="none" d="M29.5,40.8c0,0-4.2,0.4-7.2,0.6c1.5,0.2,2.8,0.1,4.2-0.1c1.2-0.1,2.4-0.3,3.6-0.4c0,0,0-0.1,0-0.1
			C29.7,40.8,29.5,40.8,29.5,40.8z"/>
		<path fill="none" d="M19.8,41.5c0,0,0,0.1,0,0.1c0.3,0,0.8,0,1.2,0.1c0-0.1,0-0.1,0.1-0.2c-0.2,0-0.3,0-0.5,0
			C20.3,41.4,20.1,41.4,19.8,41.5z"/>
		<path fill="none" d="M9.7,40.5c-0.1,0.1-0.3,0.1-0.4,0.2c1.2,0.2,2.1,0.4,3.1,0.4c0.2,0,0.5,0,0.7,0c-0.7-0.1-1.2-0.1-1.6-0.2
			C11,40.8,10.3,40.6,9.7,40.5z"/>
		<path fill="none" d="M18.6,41.5C18.6,41.5,18.6,41.5,18.6,41.5c-0.2-0.1-0.4-0.1-0.6-0.1C18.2,41.4,18.4,41.5,18.6,41.5z"/>
		<path fill="none" d="M32.7,50c0.3,0.9,0.4,1.8,0.6,2.7c0.9-0.2,1-0.8,0.2-3.8C32.3,49,32.4,49,32.7,50z"/>
		<path fill="none" d="M37.5,45c-1,0.4-1.8,0.9-1.7,2.2c0.1,1.2,0.5,1.8,1.8,2.1c2.3,0.6,2.8,2.9,1.1,4.5c-0.5,0.4-1.2,0.6-2,1
			c1.2,1.3,2.7,1.9,4.3,1.5c2.1-0.5,3.1-2.2,3.6-4.1c0.1-0.4-0.2-0.9-0.3-1.1c0.3-0.7,0.6-1.2,0.6-1.7C44.7,46.4,40.8,43.6,37.5,45z
			"/>
		<path fill="none" d="M38.1,51.9c-0.5-0.4-1.1-0.8-1.6-1.2c-0.2,0.2-0.4,0.4-0.5,0.6c0.5,0.6,0.9,1.1,1.4,1.7
			C37.5,52.6,37.8,52.3,38.1,51.9z"/>
		<path fill="none" d="M9.6,47.5c6.5,0.9,12.9,0.9,19.4-0.5c0.6-0.1,1.2-0.6,2-0.9c0.6,1.1,1.9,0.2,2.1-0.3c0.5-1.2,0.6-2.6,0.8-4.2
			c-9.3,1.6-18.2,2.1-27.2-0.5c-0.1,0.3-0.3,0.5-0.4,0.8c0,0.5,0.1,1,0,1.4C6.2,46.4,6.6,47.1,9.6,47.5z"/>
		<path fill="none" d="M31.8,60.4c-1.3-1.7-1.3-1.7-0.1-2.7c0.2,0.6,0.3,1.2,0.6,2.2c0.5-1.4,0.9-2.4,1.3-3.6c0,0-0.5-0.2-0.6,0
			c-0.7,1.2-1.4-0.1-2.1,0c-0.1,0-0.3-0.5-0.2-0.6c0.1-0.2,0.4-0.5,0.6-0.6c0.4,0,0.9,0.2,1.3,0.2c0.4,0,0.9-0.1,1.6-0.2
			c-0.9-0.7-1.4-1.2-2-1.6c-0.2,1.3-0.5,1.4-1.8,0.6c0.6-0.9,1.2-1.7,1.9-2.6c-0.8-1.3-1.5-1.3-2.3-0.4c0,0.6,0.1,1.1,0.1,1.5
			c-0.3,0-0.7,0.1-0.8-0.1c-0.5-0.7-0.9-1.4-1.5-2.5c0.9,0.3,1.2,0.5,1.8,0.7c-0.1-2,1.5-0.8,2.3-1.2c-0.5-0.5-0.8-0.9-1.2-1.3
			c0.4-0.1,0.8-0.1,1.3-0.2c-0.1-0.3-0.1-0.7-0.3-0.7c-0.6-0.2-4.2,1.3-4.5,1.7c-0.8-0.1-1.4-0.3-2.1-0.3c-1.2,0-2.5,0.3-3.7,0.3
			c-4.9,0-9.9,0.3-14.9-0.9c0.3,0.4,0.6,0.9,0.9,1.3c-0.9,0.9-0.8,6.8,0.2,7.9c-1.1,1-1,1.8,0.5,2.6c-0.3,0.3-0.5,0.5-1,0.9
			C15.5,64,23.5,62.3,31.8,60.4z"/>
		<path fill="none" d="M34.4,60.8c-0.2-0.1-0.4-0.2-0.6-0.4c-0.5,0.5-1,1-1.4,1.4c-0.8,0-1.5,0-2.2,0.1c-6,1.3-12,2.2-18.1,1.3
			c-1.5-0.2-3-0.7-4.5-1.1c0,1.4,0.1,2.7,0,4c-0.1,1.4,0.6,2,1.8,2.3c4.3,1.4,8.7,2.1,13.3,1.9c4-0.2,7.6-1.4,10.7-3.9
			c2.1-1.6,2.2-2.4,0.5-4.2C34,61.8,34.2,61.3,34.4,60.8z"/>
		<path fill="#AF7B27" d="M16.1,40.2c-0.2-0.1-0.8,0.2-1.2,0.4c0.1,0.1,0.3,0.2,0.4,0.3c-0.7,0.1-1.5,0.2-2.2,0.2
			c1.4,0.1,3.2,0.3,4.9,0.4c-0.5,0-0.9-0.1-1.3-0.1C16.5,41,16.4,40.4,16.1,40.2z"/>
		<path fill="#AF7B27" d="M24,40.3c-2.1-0.9-3.2-0.5-3.8,2.2c0.7,0,1.4-0.5,2.2-0.5c0,0,0,0,0,0C22.9,42,23.4,41.1,24,40.3z"/>
		<path fill="#AF7B27" d="M19.2,39.7c-0.2,0.6-0.4,1.2-0.5,1.7c0.4,0,0.8,0,1.2,0c0-0.6-0.1-1.2-0.1-1.7
			C19.5,39.7,19.3,39.7,19.2,39.7z"/>
		<path fill="#3A2A17" d="M31.6,39.7c-1.9-0.8-3.9-1.4-5.9-1.7c-5-0.7-10-0.2-14.9,0.8C9.9,39,9,39.3,8.2,39.7
			c-0.2,0.1-0.3,0.1-0.4,0.1C8.3,40,9,40.3,9.7,40.5c2.4-1,4.8-0.4,7-0.9c2.3-0.5,4.9-0.1,7.3-0.1c0.3,0.5,0.5,0.9,0.8,1.3
			c0.3-0.4,0.6-0.8,1-1.3c1.3,0.3,2.8,0.6,4.3,0.9c0,0.1,0,0.2,0,0.3c0.7,0,2-0.1,3-0.7C32.7,40.1,32.2,40,31.6,39.7z"/>
	</g>
	<g>
		<path fill="none" d="M7.4,60.7L8,60.4l0-0.7c-0.3,0.2-0.5,0.5-0.9,0.9c0,0,0.1,0,0.1,0C7.3,60.6,7.4,60.7,7.4,60.7z"/>
		<path fill="none" d="M6.5,47.9c0.3,0.4,0.6,0.9,0.9,1.3c-0.9,0.9-0.8,6.8,0.2,7.9c-1.1,0.9-1,1.8,0.4,2.6l0.2-10.6
			C8.3,49.1,7.4,48.7,6.5,47.9z"/>
		<path fill="none" d="M31.8,60.4c-1.3-1.7-1.3-1.7-0.1-2.7c0.2,0.6,0.3,1.2,0.6,2.2c0.5-1.4,0.9-2.4,1.3-3.6c0,0-0.5-0.2-0.6,0
			c-0.7,1.2-1.4-0.1-2.1,0c-0.1,0-0.3-0.5-0.2-0.6c0.1-0.2,0.4-0.5,0.6-0.6c0.4,0,0.9,0.2,1.3,0.2c0.4,0,0.9-0.1,1.6-0.2
			c-0.9-0.7-1.4-1.2-2-1.6c-0.2,1.3-0.5,1.4-1.8,0.6c0.6-0.9,1.2-1.7,1.9-2.6c-0.8-1.3-1.5-1.3-2.3-0.4c0,0.6,0.1,1.1,0.1,1.5
			c-0.3,0-0.7,0.1-0.8-0.1c-0.5-0.7-0.9-1.4-1.5-2.5c0.9,0.3,1.2,0.5,1.8,0.7c-0.1-2,1.5-0.8,2.3-1.2c-0.5-0.5-0.8-0.9-1.2-1.3
			c0.4-0.1,0.8-0.1,1.3-0.2c-0.1-0.3-0.1-0.7-0.3-0.7c-0.6-0.2-4.2,1.3-4.5,1.7c-0.8-0.1-1.4-0.3-2.1-0.3c-1.2,0-2.5,0.3-3.7,0.3
			c-4.9,0-9.9,0.3-14.9-0.9c1,0.8,1.8,1.2,1.8,1.2L8,59.7c0,0,0,0,0.1,0c0,0,0,0-0.1,0l0,0.7l-0.6,0.2c0,0-0.1,0-0.2,0
			C15.5,64,23.6,62.3,31.8,60.4z"/>
		<path fill="none" d="M33,43c0,0,0.3,0.2,0.6,0.8c0.1-0.7,0.2-1.4,0.3-2.2c-9.3,1.6-18.2,2.1-27.2-0.5c-0.1,0.3-0.3,0.5-0.4,0.8
			c0,0.5,0.1,1,0,1.4c-0.1,0.8-0.1,1.4,0,2c0.2-0.8,0.5-1.4,0.5-1.4L33,43z"/>
		<path fill="none" d="M7.8,39.9C8.3,40,9,40.3,9.7,40.5c-0.1,0.1-0.3,0.1-0.4,0.2c1.2,0.2,2.1,0.4,3.1,0.4c0.2,0,0.5,0,0.7,0
			c1.4,0.1,3.2,0.3,4.9,0.4c0.2,0,0.4,0,0.6,0.1c0,0,0,0,0,0c0.4,0,0.8,0,1.2,0c0,0,0,0.1,0,0.1c0.3,0,0.8,0,1.2,0.1
			c0-0.1,0-0.1,0.1-0.2c0.4,0,0.8,0,1.2-0.1c1.5,0.2,2.8,0.1,4.2-0.1c1.2-0.1,2.4-0.3,3.6-0.4c0,0,0-0.1,0-0.1c0.7,0,2-0.1,3-0.7
			c0.4-0.1,0.8-0.3,1.1-0.8C29.6,35.5,13,35.9,6.4,39C6.8,39.7,7.2,40,7.8,39.9z"/>
		<path fill="none" d="M9.6,47.5c6.5,0.9,12.9,0.9,19.4-0.5c0.6-0.1,1.2-0.6,2-0.9c0.6,1.1,1.9,0.2,2.1-0.3c0.3-0.6,0.4-1.3,0.5-2
			C33.2,43.2,33,43,33,43L6.8,43.9c0,0-0.3,0.6-0.5,1.4C6.6,46.7,7.4,47.2,9.6,47.5z"/>
		<path fill="none" d="M32.7,50c0.3,0.9,0.4,1.8,0.6,2.7c0.9-0.2,1-0.8,0.2-3.8C32.3,49,32.4,49,32.7,50z"/>
		<path fill="none" d="M38.1,51.9c-0.5-0.4-1.1-0.8-1.6-1.2c-0.2,0.2-0.4,0.4-0.5,0.6c0.5,0.6,0.9,1.1,1.4,1.7
			C37.5,52.6,37.8,52.3,38.1,51.9z"/>
		<path fill="none" d="M37.5,45c-1,0.4-1.8,0.9-1.7,2.2c0.1,1.2,0.5,1.8,1.8,2.1c2.3,0.6,2.8,2.9,1.1,4.5c-0.5,0.4-1.2,0.6-2,1
			c1.2,1.3,2.7,1.9,4.3,1.5c2.1-0.5,3.1-2.2,3.6-4.1c0.1-0.4-0.2-0.9-0.3-1.1c0.3-0.7,0.6-1.2,0.6-1.7C44.7,46.4,40.8,43.6,37.5,45z
			"/>
		<path fill="none" d="M34.4,60.8c-0.1-0.1-0.2-0.1-0.3-0.2C34,61,34,61.2,34,61.2s0-0.2,0.1-0.6c-0.1-0.1-0.2-0.1-0.3-0.2
			c-0.5,0.5-1,1-1.4,1.4c-0.8,0-1.5,0-2.2,0.1c-6,1.3-12,2.2-18.1,1.3c-1.5-0.2-2.9-0.7-4.3-1c0.1,0.1,0.1,0.2,0.2,0.4
			c-0.1-0.1-0.2-0.2-0.2-0.4c-0.1,0-0.1,0-0.2,0c0,1.4,0.1,2.7,0,4c-0.1,1.4,0.6,2,1.8,2.3c4.3,1.4,8.7,2.1,13.3,1.9
			c4-0.2,7.6-1.4,10.7-3.9c2.1-1.6,2.2-2.4,0.5-4.2C34,61.8,34.2,61.3,34.4,60.8z"/>
		<path fill="#682323" d="M30.1,62c0.7-0.2,1.5-0.1,2.2-0.1c0.4-0.4,0.9-0.9,1.4-1.4c0.1,0.1,0.2,0.1,0.3,0.2
			c0.2-1.3,0.8-4.8,0.8-9.8c0-4-0.7-6.1-1.3-7c-0.1,0.7-0.2,1.4-0.5,2c-0.2,0.5-1.5,1.4-2.1,0.3c-0.8,0.4-1.3,0.8-2,0.9
			c-6.4,1.4-12.9,1.4-19.4,0.5c-2.2-0.3-3.1-0.8-3.3-2.2c-0.3,1-0.4,2.1,0.1,2.6c5.1,1.2,10,1,14.9,0.9c1.2,0,2.5-0.2,3.7-0.3
			c0.6,0,1.3,0.2,2.1,0.3c0.2-0.3,3.9-1.9,4.5-1.7c0.2,0.1,0.2,0.5,0.3,0.7c-0.5,0.1-0.9,0.1-1.3,0.2c0.4,0.4,0.7,0.8,1.2,1.3
			c-0.9,0.4-2.4-0.8-2.3,1.2c-0.6-0.2-0.9-0.3-1.8-0.7c0.6,1.1,1,1.8,1.5,2.5c0.1,0.1,0.5,0.1,0.8,0.1c0-0.4,0-0.9-0.1-1.5
			c0.8-0.8,1.6-0.8,2.3,0.4c-0.6,0.9-1.3,1.7-1.9,2.6c1.3,0.8,1.6,0.7,1.8-0.6c0.5,0.4,1,0.8,2,1.6c-0.7,0.1-1.1,0.2-1.6,0.2
			c-0.4,0-0.9-0.2-1.3-0.2c-0.2,0-0.5,0.3-0.6,0.6c-0.1,0.2,0.2,0.6,0.2,0.6c0.7-0.1,1.4,1.2,2.1,0c0.1-0.1,0.6,0,0.6,0
			c-0.4,1.2-0.8,2.1-1.3,3.6c-0.3-1-0.4-1.6-0.6-2.2c-1.2,1-1.2,1,0.1,2.7c-8.3,2-16.3,3.6-24.6,0.3C7,60.7,7,61.1,7.7,62.2
			c1.4,0.4,2.8,0.8,4.3,1C18.1,64.2,24.2,63.4,30.1,62z M33.2,52.6c-0.2-0.9-0.3-1.8-0.6-2.7c-0.3-1-0.3-1,0.8-1.1
			C34.2,51.8,34.1,52.4,33.2,52.6z"/>
		<path fill="#682323" d="M8,59.7L8,59.7C8,59.8,8.1,59.7,8,59.7C8.1,59.7,8,59.7,8,59.7z"/>
		<path fill="#3C6F84" d="M45.1,45.5c-2.6-3.1-5.7-3.4-9.3-1.6c0-0.6-0.1-1-0.1-1.4c0-4.7-0.2-5.1-4.9-6.3c-0.3-0.1-0.6-0.1-0.9-0.2
			c-7.1-1.5-14.2-1.2-21.2,0.7c-3.5,0.9-4.5,2.1-4.2,5.9c0.5,5.6,0.7,11.3,1,16.9c0.1,2.4,0.2,4.8,0.4,7.1c0.1,0.8,0.5,1.9,1.1,2.2
			c6.2,3,12.7,4.6,19.6,3.2c3.7-0.8,7-2.3,9.4-5.3c0.6-0.8,1.2-1.8,1.3-2.7c0.1-2.1-0.2-4.2-0.4-6.6c3.6,1.4,6.2,0.6,8.1-2.4
			C46.9,51.9,46.9,47.7,45.1,45.5z M34.2,39.3c-0.4,0.4-0.7,0.7-1.1,0.8c-1,0.6-2.3,0.7-3,0.7c0,0,0,0.1,0,0.1
			c-1.2,0.1-2.4,0.3-3.6,0.4c-1.3,0.1-2.7,0.3-4.2,0.1c-0.4,0-0.8,0.1-1.2,0.1c0,0.1,0,0.1-0.1,0.2c-0.4,0-0.9,0-1.2-0.1
			c0,0,0-0.1,0-0.1c-0.4,0-0.8,0-1.2,0c0,0,0,0,0,0c-0.2,0-0.4,0-0.6-0.1c-1.7-0.1-3.5-0.2-4.9-0.4c-0.2,0-0.5,0-0.7,0
			c-0.9,0-1.9-0.2-3.1-0.4c0.1-0.1,0.3-0.1,0.4-0.2C9,40.3,8.3,40,7.8,39.9c-0.6,0.1-1-0.2-1.4-0.9C13,35.9,29.6,35.5,34.2,39.3z
			 M33.4,66.6c-3.2,2.4-6.7,3.7-10.7,3.9c-4.6,0.2-9-0.5-13.3-1.9c-1.2-0.4-2-0.9-1.8-2.3c0.1-1.3,0-2.7,0-4c0.1,0,0.1,0,0.2,0
			C7,61.1,7,60.7,7.2,60.7c0,0-0.1,0-0.1,0C7.5,60.2,7.8,60,8,59.8l0-0.1c-1.4-0.8-1.5-1.6-0.4-2.6c-1-1.2-1.1-7-0.2-7.9
			c-0.3-0.4-0.6-0.9-0.9-1.3c-0.5-0.5-0.4-1.6-0.1-2.6c-0.1-0.5-0.1-1.2,0-2c0-0.5-0.1-1,0-1.4c0-0.3,0.2-0.5,0.4-0.8
			c9,2.6,17.9,2,27.2,0.5c-0.1,0.8-0.2,1.5-0.3,2.2c0.6,1,1.3,3,1.3,7c0,5-0.6,8.5-0.8,9.8c0.1,0.1,0.2,0.1,0.3,0.2
			c-0.2,0.5-0.4,1-0.5,1.6C35.5,64.2,35.5,65,33.4,66.6z M35.9,51.3c0.2-0.2,0.4-0.4,0.5-0.6c0.5,0.4,1.1,0.8,1.6,1.2
			c-0.3,0.3-0.5,0.7-0.8,1C36.8,52.4,36.3,51.8,35.9,51.3z M44.5,52.2c-0.6,1.9-1.5,3.6-3.6,4.1c-1.6,0.4-3.1-0.2-4.3-1.5
			c0.8-0.4,1.6-0.5,2-1c1.7-1.6,1.2-3.9-1.1-4.5c-1.2-0.3-1.7-1-1.8-2.1c-0.1-1.3,0.7-1.8,1.7-2.2c3.4-1.4,7.2,1.3,7.4,4.4
			c0,0.5-0.3,1-0.6,1.7C44.3,51.3,44.6,51.8,44.5,52.2z"/>
	</g>
</g>
</svg>
