<?xml version="1.0" encoding="utf-8"?>
<!-- Generator: Adobe Illustrator 19.1.0, SVG Export Plug-In . SVG Version: 6.00 Build 0)  -->
<svg version="1.1" id="Layer_1" xmlns="http://www.w3.org/2000/svg" xmlns:xlink="http://www.w3.org/1999/xlink" x="0px" y="0px"
	 width="73px" height="89.7px" viewBox="0 0 73 89.7" enable-background="new 0 0 73 89.7" xml:space="preserve">
<path opacity="0.2" d="M12.7,27.1c-0.9-4.5,1.7-7.5,4.6-10c1-0.8,2.8-0.9,4.2-0.9c1.6,0.1,3.1,0.7,4.6,1.1c4.1,1,7.7,0.1,10.6-3
	c1.2-1.3,2.4-2.6,3.7-3.9c3.3-3.3,6.7-4.2,11-2.3c5.5,2.5,9.6,6.4,12.2,12c1.8,3.9,1.8,8-0.2,11.6c-3,5.5-1.7,9.7,2.7,13.6
	c3.4,3,4.8,6.8,4.6,11.3c-0.2,5.4-2.7,9.4-8,10.9c-4.6,1.3-7.5,4.1-9.6,8.2c-3.3,6.3-9,8.9-15.7,9.6c-1.3,0.1-2.6,0.1-3.9,0.1
	c-4.8,0.1-8.7-1.8-11.7-5.6c-1-1.2-2-2.5-2.8-3.9c-1.5-2.6-3.7-4.2-6.5-5.2c-1.8-0.6-3.5-1.4-5.1-2.2c-5.8-3.1-7.1-9-3.3-14.4
	c0.7-1,1.5-1.8,2.3-2.7c1.8-2.1,1.9-2.6,0.3-4.9C5.2,44.5,4,42.4,4,39.7c-0.1-5.7,2.7-9.5,7.6-12.1C11.9,27.5,12.3,27.3,12.7,27.1z
	 M33.8,82.2c8.3,0.3,13.6-2.5,17.1-9.1c2.2-4,5.1-6.9,9.6-8.3c7.4-2.4,9.5-10.7,4.4-16.7c-1.7-1.9-3.3-3.9-4.7-6
	c-1.7-2.4-1.7-5-0.8-7.7c0.4-1,0.8-2.1,1.2-3.1c1.7-3.8,1.4-7.6-0.6-11.2c-1.3-2.4-2.9-4.7-4.4-7c-2-3-4.9-3.9-8.5-3.4
	c-3.9,0.5-6.5,2.9-9.2,5.3c-3.9,3.3-8,5.5-13.2,3c-0.1-0.1-0.3-0.1-0.4-0.1c-5.3-1.4-9.9,2.1-9.6,7.6c0.1,2.3-0.7,3.4-2.6,4.5
	c-5.5,3.3-7.3,7.5-5.8,13.5c0.4,1.6,1.2,3.2,2.2,4.4c1.4,1.6,1.2,2.8-0.1,4.3c-1.3,1.5-2.4,3.1-3.4,4.7c-2.9,5-0.2,10.1,5.5,10.4
	c4,0.2,7.1,2,9.6,5.1c0.9,1.1,1.7,2.4,2.5,3.6C25.6,80.1,29.4,82.5,33.8,82.2z"/>
<path fill="#93B0BA" d="M11.3,25.3c-0.9-4.5,1.7-7.5,4.6-10c1-0.8,2.8-0.9,4.2-0.9c1.6,0.1,3.1,0.7,4.6,1.1c4.1,1,7.7,0.1,10.6-3
	c1.2-1.3,2.4-2.6,3.7-3.9c3.3-3.3,6.7-4.2,11-2.3c5.5,2.5,9.6,6.4,12.2,12c1.8,3.9,1.8,8-0.2,11.6c-3,5.5-1.7,9.7,2.7,13.6
	c3.4,3,4.8,6.8,4.6,11.3c-0.2,5.4-2.7,9.4-8,10.9c-4.6,1.3-7.5,4.1-9.6,8.2c-3.3,6.3-9,8.9-15.7,9.6c-1.3,0.1-2.6,0.1-3.9,0.1
	c-4.8,0.1-8.7-1.8-11.7-5.6c-1-1.2-2-2.5-2.8-3.9c-1.5-2.6-3.7-4.2-6.5-5.2c-1.8-0.6-3.5-1.4-5.1-2.2c-5.8-3.1-7.1-9-3.3-14.4
	c0.7-1,1.5-1.8,2.3-2.7c1.8-2.1,1.9-2.6,0.3-4.9c-1.5-2.1-2.6-4.1-2.7-6.8c-0.1-5.7,2.7-9.5,7.6-12.1C10.5,25.7,10.9,25.5,11.3,25.3
	z M32.4,80.4c8.3,0.3,13.6-2.5,17.1-9.1c2.2-4,5.1-6.9,9.6-8.3c7.4-2.4,9.5-10.7,4.4-16.7c-1.7-1.9-3.3-3.9-4.7-6
	c-1.7-2.4-1.7-5-0.8-7.7c0.4-1,0.8-2.1,1.2-3.1c1.7-3.8,1.4-7.6-0.6-11.2c-1.3-2.4-2.9-4.7-4.4-7c-2-3-4.9-3.9-8.5-3.4
	c-3.9,0.5-6.5,2.9-9.2,5.3c-3.9,3.3-8,5.5-13.2,3C23.2,16,23.1,16,23,16c-5.3-1.4-9.9,2.1-9.6,7.6c0.1,2.3-0.7,3.4-2.6,4.5
	C5.2,31.4,3.5,35.7,5,41.6c0.4,1.6,1.2,3.2,2.2,4.4c1.4,1.6,1.2,2.8-0.1,4.3c-1.3,1.5-2.4,3.1-3.4,4.7c-2.9,5-0.2,10.1,5.5,10.4
	c4,0.2,7.1,2,9.6,5.1c0.9,1.1,1.7,2.4,2.5,3.6C24.2,78.3,28,80.7,32.4,80.4z"/>
<path fill="#D17530" d="M50.7,45.3c-0.1-0.5,0.2-1.1,0.3-1.6c-0.6,0-1.3-0.1-1.9-0.1c-1.4-2.2-2.7-4.4-4.3-6.4
	c-5.8-7-17.8-7.9-24.4-1.9c-3.3,3-5,6.9-5.6,11.3c-0.6,4.7-0.3,9.1,3.7,12.5c6.5,5.5,14,4.3,21.4,3.6c1-0.1,1.7-0.7,2.7,0.1
	c0.2,0.2,0.8-0.1,1.2-0.1c-0.1-0.3-0.2-0.7-0.5-1c-0.2-0.3-0.6-0.4-0.9-0.6c1.8,0.5,2.6-0.4,3.3-1.7c0.8-1.5,1.6-2.9,2.2-3.9
	c1.1-0.3,2.2-0.4,2.3-0.8c0.4-0.9,0.7-2.2,0.3-2.9C49.1,49.5,51.3,47.5,50.7,45.3z M43.7,50.8c0.5,0.5,1,0.7,1.1,1.1
	c0.2,0.6,0.6,1.5,0.3,1.8c-1.3,1.6-2.8,3-4.3,4.6c-0.1-1-0.2-1.7-0.2-2.3c-0.4,0.4-0.9,0.8-1.4,1.1c-0.3,0.2-0.5,0.5-0.8,0.5
	c-1.5,0.1-1.1,0.9-0.6,1.7c-4.1,2.3-3.2,2.1-4.8,0.9c-0.9,0-1.6,2-2.6,0.3c-0.1-0.1-0.4-0.1-0.5,0c-2.1,0.8-2.1,0.8-2.3-1.8
	c-0.7,0.7-1.2,1.1-1.4,1.3c-1.6-0.7-3.2-1-4.3-1.9c-3.4-2.8-5.8-6.2-5.1-10.9c0.9-6.1,3.7-10.9,9.5-13.7c5-2.4,11.3-1.5,14.8,2.1
	c0.2,0.2,0.3,0.4,0.4,0.7c0.1,0.1,0.1,0.3,0.2,0.5c0,0.1,0,0.1,0.1,0.2c0.1,0.2,0.1,0.4,0.2,0.6c0,0.2,0.1,0.3,0.1,0.5
	c0,0.1,0,0.2,0.1,0.3c0.1,0.1,0.2,0.2,0.2,0.2c0.1,0.1,0.1,0.1,0.2,0.2c0.1,0.1,0.3,0.3,0.4,0.4c0.1,0.1,0.2,0.2,0.2,0.3
	c2,2.4,2.8,5.2,3.5,7.6C45.3,48.7,44.5,49.7,43.7,50.8z"/>
<g>
	<path fill="#EDB53A" d="M43.7,50.8c0.9-1.1,1.7-2.1,2.8-3.6C45.8,44.8,45,42,43,39.6c0.2,3.2-0.5,8.2-5.1,13.3
		C31.4,60,21.4,55.8,17.9,54c0.9,1.6,2.3,3,3.8,4.2c1.1,0.9,2.8,1.2,4.3,1.9c0.2-0.2,0.6-0.6,1.4-1.3c0.2,2.6,0.2,2.6,2.3,1.8
		c0.2-0.1,0.5-0.1,0.5,0c1.1,1.7,1.8-0.3,2.6-0.3c1.6,1.3,0.7,1.5,4.8-0.9c-0.5-0.8-0.9-1.6,0.6-1.7c0.3,0,0.6-0.3,0.8-0.5
		c0.5-0.4,0.9-0.8,1.4-1.1c0.1,0.6,0.1,1.3,0.2,2.3c1.6-1.6,3-3.1,4.3-4.6c0.3-0.3-0.1-1.3-0.3-1.8C44.6,51.6,44.2,51.3,43.7,50.8z"
		/>
	<path fill="#FFEC66" d="M37.9,52.9C31.5,60,21.4,55.8,17.9,54c-0.2-0.4-0.4-0.7-0.6-1.1c-0.7-1.6-1-3.4-0.7-5.5
		c0.9-6.1,3.7-10.9,9.5-13.7c5-2.4,11.3-1.5,14.8,2.1c0.2,0.2,0.3,0.4,0.4,0.7c0.3,0.6,0.4,1.3,0.6,2c0.4,0.4,0.7,0.7,1.1,1.1
		C43.2,42.8,42.5,47.8,37.9,52.9z"/>
</g>
<path fill="#FFFFFF" d="M19.8,45.9l3.5,0.9c0,0,1.5-7.4,6.8-7.9s-0.2-3.8-0.2-3.8S19.1,38.7,19.8,45.9z"/>
<g>
	<path fill="none" d="M39.9,62.7c1-0.1,1.7-0.7,2.7,0.1c0.2,0.2,0.8-0.1,1.2-0.1c-0.1-0.3-0.2-0.7-0.5-1c-0.2-0.3-0.6-0.4-0.9-0.6
		c1.8,0.5,2.6-0.4,3.3-1.7c0.8-1.4,1.6-2.9,2.2-3.9c1.1-0.3,2.2-0.4,2.3-0.8c0.4-0.9,0.7-2.2,0.3-2.9c-1.3-2.3,0.9-4.3,0.3-6.4
		c-0.1-0.5,0.2-1.1,0.3-1.6c-0.6,0-1.2-0.1-1.9-0.1c-1.4-2.2-2.7-4.4-4.3-6.4c-5.8-7-17.8-7.9-24.4-1.9c-3.3,3-5,6.9-5.6,11.3
		c-0.6,4.7-0.3,9.1,3.7,12.5C24.9,64.6,32.5,63.4,39.9,62.7z"/>
	<path fill="#EFEFEF" d="M63.5,46.3c-1.7-1.9-3.3-3.9-4.7-6c-1.7-2.4-1.7-5-0.8-7.7c0.4-1,0.8-2.1,1.2-3.1c0.8-1.9,1.2-3.7,1.1-5.5
		c-3.3,4.9-8.2,13.8-4.6,18.6c5.2,6.9,4.6,11,1.7,14.5c-2.9,3.5-10,7.7-10,7.7s-3.5,8.3-15,10.8c-4.9,1.1-8.6-0.1-11.2-1.7
		c0,0.1,0.1,0.1,0.1,0.2c2.8,4.3,6.6,6.7,11,6.3c8.3,0.3,13.6-2.5,17.1-9.1c2.2-4,5.1-6.9,9.6-8.3C66.5,60.6,68.6,52.3,63.5,46.3z"
		/>
	<path fill="#FFFFFF" d="M32.5,75.6c11.4-2.5,15-10.8,15-10.8s7.1-4.2,10-7.7c2.9-3.5,3.5-7.7-1.7-14.5c-3.6-4.8,1.3-13.7,4.6-18.6
		c-0.1-1.9-0.6-3.8-1.7-5.7c-1.3-2.4-2.9-4.7-4.4-7c-2-3-4.9-3.9-8.5-3.4c-3.9,0.5-6.5,2.9-9.2,5.3c-3.9,3.3-8,5.5-13.2,3
		C23.2,16,23.1,16,23,16c-5.3-1.4-9.9,2.1-9.6,7.6c0.1,2.3-0.7,3.4-2.6,4.5C5.2,31.4,3.5,35.7,5,41.6c0.4,1.6,1.2,3.2,2.2,4.4
		c1.4,1.6,1.2,2.8-0.1,4.3c-1.3,1.5-2.4,3.1-3.4,4.7c-2.9,5-0.2,10.1,5.5,10.4c4,0.2,7.1,2,9.6,5.1c0.9,1.1,1.6,2.2,2.4,3.4
		C23.9,75.5,27.6,76.6,32.5,75.6z M18.5,59.1c-4.1-3.4-4.3-7.8-3.7-12.5c0.6-4.4,2.3-8.3,5.6-11.3c6.6-6,18.6-5.1,24.4,1.9
		c1.6,2,2.9,4.2,4.3,6.4c0.6,0,1.3,0.1,1.9,0.1c-0.1,0.5-0.4,1.1-0.3,1.6c0.6,2.2-1.6,4.2-0.3,6.4c0.4,0.7,0.1,2-0.3,2.9
		c-0.2,0.4-1.2,0.4-2.3,0.8c-0.6,1-1.4,2.4-2.2,3.9c-0.7,1.3-1.5,2.3-3.3,1.7c0.3,0.2,0.7,0.3,0.9,0.6c0.2,0.3,0.3,0.7,0.5,1
		c-0.4,0-1,0.3-1.2,0.1c-0.9-0.7-1.7-0.2-2.7-0.1C32.5,63.4,24.9,64.6,18.5,59.1z"/>
</g>
</svg>
