<?xml version="1.0" encoding="utf-8"?>
<!-- Generator: Adobe Illustrator 19.1.0, SVG Export Plug-In . SVG Version: 6.00 Build 0)  -->
<svg version="1.1" id="Layer_1" xmlns="http://www.w3.org/2000/svg" xmlns:xlink="http://www.w3.org/1999/xlink" x="0px" y="0px"
	 width="86.5px" height="88px" viewBox="0 0 86.5 88" enable-background="new 0 0 86.5 88" xml:space="preserve">
<ellipse opacity="0.2" cx="42.9" cy="48.7" rx="39.4" ry="35.5"/>
<path fill="#896C38" d="M44.1,73.6c0.9,0,1.9-0.1,2.7,0c0.8,0.2,2.1,0.6,2.1,1c0,0.9-0.4,2.6-0.9,2.7c-2.6,0.7-5.3,1-8,1.2
	c-0.3,0-1-1.9-1-2.9c0-0.7,0.8-1.8,1.5-2C41.7,73.3,43,73.6,44.1,73.6C44.1,73.6,44.1,73.6,44.1,73.6z"/>
<path fill="#896C38" d="M40.5,66.8c0-0.3,0-0.5,0-0.7c0.8-4.5-1-6.7-5.6-7.2c-4.3-0.4-8.6-0.7-12.9-1.3c-3.8-0.5-7.4-1.4-9.3-5.5
	c-0.9-2-0.9-4,0.5-5.5c1.9-2.2,4.1-4.2,6.3-6.1c1.6-1.3,1.8-3.4,0.2-4.9c-1.1-1-2.3-1.9-3.5-2.7c-2.4-1.7-3.1-4.3-1.7-7
	c1.6-3.2,4-5.5,7.2-7c5.1-2.4,10.4-4.5,16.2-4.5c0.3,0,0.7-0.1,1,0c2.9,1.3,5.9,0.6,8.9,0.3c4.2-0.4,7.7,1.3,10.6,4.4
	c1.3,1.4,1.4,2.7,0.4,4.2c-0.8,1.3-1.6,2.5-2.2,3.9C55.4,30,56,32,58.6,33.8c0.9,0.6,1.9,1.3,2.9,1.8c2.8,1.6,3.9,4.7,2.2,7.4
	c-3,5-7.1,8.8-12.5,11c-3.8,1.5-6.2,5-6.2,9.4C45.1,67,44.4,67.6,40.5,66.8z M39.6,20.9c-1,0.4-1.5,0.5-2,0.9
	c-2.9,2.1-5.7,4.3-8.5,6.5c-0.3,0.3-0.5,1-0.5,1.4c0.1,1.9,0.2,3.8,0.6,5.6c0.2,1,0.9,2,1.7,2.6c2.4,1.8,4.9,3.4,7.5,5
	c0.5,0.3,1.7,0.2,2.2-0.2c1.7-1.2,3.2-2.7,4.9-3.9c1.5-1,2.2-2.3,2.4-4c0.4-2.7,0.9-5.4,1.3-8.1c0.1-0.5-0.2-1.2-0.5-1.4
	C45.6,23.7,42.5,22.3,39.6,20.9z M23.6,39.4c1.8-2.5,1.5-3.7-1.4-4.8C22.7,36.4,23.1,37.8,23.6,39.4z"/>
<path fill="#C1913D" d="M71.2,48.1c2.8-1.6,3.5-4.5,4.7-7c0.2,0.1,0.4,0.1,0.5,0.2c-0.9,2.9-1.3,5.9-2.6,8.6
	c-3.8,7.4-10,12.5-16.8,16.9c-2.6,1.7-5.5,2.8-8.3,4.1c-0.9-3-0.6-3.4,2-4.6c4.7-2.1,9.4-4.3,13.6-8.4C63.4,58,63,58,62.6,58.1
	c-1,0.3-1.9,0.6-2.8,0.9c-0.9,0.3-1.8,0.8-2.7,1.2c-0.9,0.5-1.7,1-2.6,1.5c-1.9,1.1-3.9,2.1-5.7,3.3c-1.4,0.8-2,0.1-1.9-1.1
	c0-1.2,0.5-2.4,0.8-3.5c0.4-1.7,1.8-1.2,2.9-1.6c1.2-0.4,2.3-1.2,3.3-1.9c5.1-3.4,9.6-7.4,11.8-13.4c1.6-4.4,0-8.7-4.1-10.9
	c-0.5-0.3-1-0.6-1.5-1c-2.2-1.5-2.5-2.3-1-4.7c1.8-2.8,2.8-5.6,0.8-8.9c-2.2-3.6-9.5-6.5-13.6-5.7c-1.8,0.4-3.8-0.1-5.7-0.4
	c-3.5-0.4-6.9-0.4-10.2,0.9c-0.7,0.3-1.4,0.6-2.1,0.8c-0.7,0.1-1.4,0-2.6,0c-3.2,1.9-6.9,4.1-10.8,6.5c-0.2,0.4,1.1,2.4-1.4,1.7
	c-0.1,0-0.6,0.7-0.7,1.2c-0.1,0.9,0.1,1.8-0.2,2.6c-1.3,4,0.2,8.2,3.8,10.3c0.7,0.4,1.4,1,2.1,1.6c-1.9,2-3.8,3.7-5.4,5.7
	c-2.7,3.3-3.7,6.9-1.5,10.9c0.3,0.5,0.2,1.2,0.5,1.7c0.3,0.6,0.8,1.3,1.4,1.6c1.3,0.8,2.9,1.1,3.5,2.9c0.4,1.2,3.3,1.7,4.7,1
	c0.6-0.3,1.4-0.6,2-0.6c4.3,0.5,8.7,1.2,13,1.8c0.4,0.1,0.8,0,1.2,0c1.6-0.3,1.8,0.4,1.5,1.7c-0.8,2.9-2.2,3.6-5.1,2.4
	c-2.6-1.1-9.4-1.5-12.5-0.8c2.3,2.1,5.3,1.5,7.9,2.1c2.7,0.6,5.5,0.5,8.3,0.7c0.3,1.6,0,2.5-1.9,2.5c-6.9-0.2-13.5-1.4-19.8-4.2
	c-5-2.3-7.9-6.4-9.3-11.6c-0.5-2.1-1.4-4.1-0.6-6.4c0.4-1.1,0-2.5-0.2-3.7c-1.8-11.3,0.4-21.7,8.6-30C20.3,9.6,27.1,6.1,35.4,7
	c6,0.7,12,1.3,18,2.2c2,0.3,3.9,1.4,5.6,2.1c-0.3,1-0.8,1.8-0.6,2.5c0.1,0.4,1.1,0.7,1.8,0.9c0.8,0.2,1.5,0.3,2.5,0.5
	c0.1-0.5,0.2-1,0.3-1.5c2.9-1,11.4,9.7,12.1,14.9C75.8,35.6,74.1,41.9,71.2,48.1z M7.3,36.5c0.2,0,0.4,0.1,0.6,0.1
	c1.6-3.2,2-5.9,0.7-7.6C8.2,31.8,7.7,34.2,7.3,36.5z M69.3,36.9c-0.4-0.1-0.7-0.2-1.1-0.3c-0.5,1.7-0.9,3.4-1.4,5.1
	c0.3,0.1,0.6,0.2,0.9,0.3C68.2,40.2,68.8,38.6,69.3,36.9z M65.4,56.5c0.1,0.2,0.3,0.4,0.4,0.6c0.6-0.2,1.5-0.2,1.8-0.6
	c0.3-0.4,0-1.2-0.1-1.8c-0.2-0.1-0.4-0.1-0.6-0.2C66.3,55.1,65.9,55.8,65.4,56.5z M9.3,50.1c-0.4,0.1-0.7,0.2-1.1,0.3
	c0.4,1,0.7,1.9,1.1,2.9c0.3-0.1,0.6-0.2,1-0.3C9.9,52,9.6,51.1,9.3,50.1z M12.3,59.1c-0.5,2.1,1,2.4,2.4,2.9
	C13.9,61,13.1,60,12.3,59.1z"/>
<path fill="#997433" d="M11.3,66.9c3.2,1.5,6.3,3.2,9.6,4.5c2.2,0.9,4.5,1.4,6.8,1.7c3,0.5,6.1,0.7,9.2,0.9c1.5,0.1,2,0.6,2,2.1
	c0,1.6-0.7,1.9-2.1,2c-6.1,0.2-11.7-1.8-17-4.6c-3.2-1.7-5.9-4-8.9-6.1C11.1,67.2,11.2,67,11.3,66.9z"/>
<path fill="#997433" d="M72.7,57.2c-0.3,3.1-2.3,5.1-4.5,6.8c-3,2.4-6.2,4.7-9.5,6.8c-2.9,1.9-6,3.4-9.1,5.2c-1-2.2,0.3-2.8,1.5-3.3
	c7.8-3.2,14.6-7.9,20.1-14.4c0.3-0.4,0.6-0.7,1-1C72.3,57.1,72.4,57.2,72.7,57.2z"/>
<path fill="#896C38" d="M43,71.1c-0.6,0-1.3,0.1-1.8,0c-0.5-0.2-1.3-0.8-1.2-1.1c0.1-0.6,0.6-1.3,1.2-1.5c1.2-0.4,2.5-0.7,3.7-0.7
	c0.6,0,1.5,0.8,1.6,1.4c0.1,0.6-0.5,1.5-1.1,1.8C44.8,71.3,43.8,71,43,71.1C43,71,43,71.1,43,71.1z"/>
<path fill="#EDB53A" d="M39.6,20.9c2.9,1.4,6,2.9,9.1,4.5c0.3,0.2,0.6,1,0.5,1.4c-0.4,2.7-0.9,5.4-1.3,8.1c-0.2,1.7-0.9,3-2.4,4
	c-1.7,1.2-3.2,2.7-4.9,3.9c-0.5,0.4-1.7,0.5-2.2,0.2c-2.6-1.5-5.1-3.2-7.5-5c-0.8-0.6-1.5-1.7-1.7-2.6c-0.4-1.8-0.5-3.7-0.6-5.6
	c0-0.5,0.2-1.2,0.5-1.4c2.8-2.2,5.6-4.4,8.5-6.5C38.1,21.4,38.6,21.3,39.6,20.9z M44.5,30c0.2,0.2,0.4,0.4,0.7,0.5
	c-0.5,0.8-0.9,1.7-1.5,2.3c-1.7,1.6-4.1,2.6-4.4,5.4c0,0-0.2,0.1-0.6,0.2c-0.2-0.6-0.2-1.3-0.5-1.9c-0.2-0.5-0.5-1.1-0.9-1.3
	c-2-1-4.1-1.9-6.2-2.9c-0.5,1.8-0.2,3.3,1.7,4c1,0.4,2.4,0.7,3.1,1.5c3.4,4,5.7,0.7,8.2-1.1c0.9-0.6,1.9-1.5,2.1-2.5
	c0.5-1.9,0.6-4,0.7-6c0-0.4-0.3-1-0.6-1.3c-5-3.6-11.1-2.3-14.1,3.3c2.3,1.1,4.6,2.3,7.1,3.5C40.8,32.7,42.7,31.4,44.5,30z"/>
<path fill="#724F17" d="M23.6,39.4c-0.5-1.6-0.9-3-1.4-4.8C25.1,35.7,25.4,37,23.6,39.4z"/>
<path fill="#997433" d="M7.3,36.5c0.4-2.4,0.8-4.7,1.3-7.5c1.3,1.8,0.9,4.5-0.7,7.6C7.8,36.6,7.6,36.6,7.3,36.5z"/>
<path fill="#997433" d="M69.3,36.9c-0.6,1.7-1.1,3.3-1.7,5c-0.3-0.1-0.6-0.2-0.9-0.3c0.5-1.7,0.9-3.4,1.4-5.1
	C68.6,36.7,69,36.8,69.3,36.9z"/>
<path fill="#997433" d="M65.4,56.5c0.5-0.7,1-1.3,1.5-2c0.2,0.1,0.4,0.1,0.6,0.2c0,0.6,0.3,1.4,0.1,1.8c-0.3,0.4-1.2,0.4-1.8,0.6
	C65.6,56.8,65.5,56.7,65.4,56.5z"/>
<path fill="#997433" d="M9.3,50.1c0.3,1,0.6,1.9,1,2.9c-0.3,0.1-0.6,0.2-1,0.3c-0.4-1-0.7-1.9-1.1-2.9C8.6,50.3,8.9,50.2,9.3,50.1z"
	/>
<path fill="#997433" d="M12.3,59.1c0.8,1,1.6,1.9,2.4,2.9C13.3,61.5,11.8,61.1,12.3,59.1z"/>
<path fill="#FFEC66" d="M44.5,30c-1.9,1.3-3.8,2.6-5.3,3.7c-2.5-1.3-4.8-2.4-7.1-3.5c3-5.6,9.1-6.9,14.1-3.3
	c0.3,0.3,0.6,0.9,0.6,1.3c-0.1,2-0.2,4.1-0.7,6c-0.2,0.9-1.2,1.8-2.1,2.5c-2.5,1.8-4.8,5.2-8.2,1.1c-0.7-0.8-2-1-3.1-1.5
	c-1.8-0.8-2.1-2.2-1.7-4c2.1,1,4.2,1.9,6.2,2.9c0.4,0.2,0.7,0.8,0.9,1.3c0.2,0.6,0.3,1.2,0.5,1.9c0.4-0.1,0.6-0.1,0.6-0.2
	c0.3-2.8,2.7-3.8,4.4-5.4c0.7-0.6,1-1.5,1.5-2.3C45,30.4,44.8,30.2,44.5,30z"/>
<g>
	<path fill="none" d="M46.2,69.2c-0.1-0.6-0.8-1.2-1.3-1.2c0,0,0,0,0,0C45.4,68,46.1,68.7,46.2,69.2c0.1,0.5-0.2,1.3-1.2,1.6
		c0,0,0,0,0,0C46,70.5,46.3,69.8,46.2,69.2z"/>
	<path fill="none" d="M45.4,71c0.1,0,0.1-0.1,0.2-0.1c0,0,0,0,0,0C45.5,70.9,45.4,70.9,45.4,71z"/>
	<path fill="none" d="M40.4,75.6c0-0.5,0.7-1.3,1.2-1.5C41,74.3,40.3,75.1,40.4,75.6c-0.1,0.7,0.4,2.2,0.7,2.2c0,0,0,0,0,0
		C40.8,77.8,40.3,76.4,40.4,75.6z"/>
	<path fill="none" d="M42.5,71.1C42.5,71.1,42.5,71.1,42.5,71.1c0.1,0,0.2,0,0.3,0C42.7,71.1,42.6,71.1,42.5,71.1z"/>
	<path fill="none" d="M42.1,71.1C42.1,71.1,42.1,71.1,42.1,71.1c0.1,0,0.3,0,0.4,0c0,0,0,0,0,0C42.4,71.1,42.2,71.1,42.1,71.1z"/>
	<path fill="none" d="M41.9,71.1c0.1,0,0.1,0,0.2,0c0,0,0,0,0,0C42,71.1,42,71.1,41.9,71.1z"/>
	<path fill="none" d="M38.9,76c0-0.6-0.1-1-0.3-1.4c0.1,0.7,0.1,1.4,0.2,2.1C38.9,76.6,38.9,76.3,38.9,76z"/>
	<path fill="none" d="M49.6,75.9c-0.1-0.5-0.2-1-0.3-1.6C49.2,74.7,49.3,75.2,49.6,75.9z"/>
	<path fill="none" d="M36.5,70.6l-1.6-0.8c0,0-3.7-1-8.8-2.3c-0.9-0.1-1.7-0.3-2.5-0.6c-1.6-0.4-3.3-0.8-5.1-1.1
		c-3.7-0.8-6.9-3-9.5-5.4c1.6,2.8,4,5.1,7.3,6.6c6.3,2.8,12.9,4,19.8,4.2c0.3,0,0.6,0,0.8-0.1C36.2,70.9,36.5,70.6,36.5,70.6z"/>
	<path fill="none" d="M71.2,48.1c2.9-6.2,4.6-12.6,3.8-19.4c-0.7-5.2-9.2-16-12.1-14.9c-0.1,0.5-0.2,0.9-0.3,1.5
		c-0.9-0.2-1.7-0.3-2.5-0.5c-0.7-0.2-1.7-0.5-1.8-0.9c-0.1-0.7,0.4-1.6,0.6-2.5c-1.7-0.7-3.6-1.8-5.6-2.1c-6-0.9-12-1.5-18-2.2
		c-8.3-0.9-15.1,2.6-20.5,8.1c-8.2,8.3-10.4,18.7-8.6,30c0.2,1.2,0.6,2.6,0.2,3.7c-0.8,2.3,0,4.3,0.6,6.4c0.5,1.8,1.1,3.5,2,5
		c2.5,2.4,5.8,4.6,9.5,5.4c1.8,0.4,3.5,0.8,5.1,1.1c-0.6-0.2-1.1-0.6-1.7-1.1c3.1-0.8,9.8-0.3,12.5,0.8c1.7,0.7,2.9,0.8,3.7,0.1
		c0-1-0.1-1.6-0.1-1.6s0,0.6,0.1,1.6c0.6-0.5,1-1.3,1.4-2.5c0.4-1.3,0.1-2-1.5-1.7c-0.4,0.1-0.8,0.1-1.2,0c-4.3-0.6-8.6-1.2-13-1.8
		c-0.6-0.1-1.4,0.3-2,0.6c-1.3,0.7-4.3,0.2-4.7-1c-0.6-1.8-2.2-2.1-3.5-2.9c-0.6-0.4-1.1-1-1.4-1.6c-0.3-0.5-0.2-1.2-0.5-1.7
		c-2.3-4-1.2-7.6,1.5-10.9c1.6-2,3.5-3.8,5.4-5.7c-0.7-0.5-1.4-1.1-2.1-1.6c-3.6-2.2-5.1-6.3-3.8-10.3c0.3-0.8,0.1-1.8,0.2-2.6
		c0.1-0.4,0.6-1.2,0.7-1.2c2.5,0.7,1.3-1.3,1.4-1.7c4-2.4,7.7-4.6,10.8-6.5c1.2,0,1.9,0.1,2.6,0c0.7-0.1,1.4-0.5,2.1-0.8
		c3.3-1.3,6.7-1.3,10.2-0.9c1.9,0.2,3.9,0.7,5.7,0.4c4.1-0.8,11.3,2.1,13.6,5.7c2,3.2,1,6-0.8,8.9c-1.5,2.4-1.2,3.2,1,4.7
		c0.5,0.3,1,0.7,1.5,1c4.1,2.2,5.7,6.5,4.1,10.9c-2.2,6-6.6,10-11.8,13.4c-1.1,0.7-2.1,1.4-3.3,1.9c-1.1,0.4-2.5-0.1-2.9,1.6
		c-0.2,1.2-0.7,2.3-0.8,3.5c0,0.8,0.2,1.5,0.9,1.5c0-0.5,0-1,0-1.3c0,0.3,0,0.8,0,1.3c0.3,0,0.6-0.1,1.1-0.4
		c1.9-1.1,3.8-2.2,5.7-3.3c0.9-0.5,1.7-1,2.6-1.5c0.9-0.4,1.8-0.8,2.7-1.2c0.9-0.4,1.9-0.6,2.8-0.9c0.4-0.1,0.8-0.1,1.7-0.2
		c-4.2,4.1-8.9,6.3-13.6,8.4c-2.5,1.1-2.9,1.5-2.1,4.1c1-0.2,1.9-0.5,2.6-0.7c0.7-0.3,1.4-0.7,2.1-1L66,58.8l3.9-4.7l5-8.8
		c0,0,0.5-1.6,1.1-4.2c0,0,0,0-0.1,0C74.7,43.6,74,46.5,71.2,48.1z"/>
	<path fill="none" d="M48.8,70.8c0.8-0.4,1.6-0.8,2.4-1.1c-0.7,0.2-1.5,0.5-2.6,0.7C48.7,70.5,48.7,70.6,48.8,70.8z"/>
	<path fill="none" d="M38.1,68.6c-2.9-0.2-5.7-0.1-8.3-0.7c-1.2-0.3-2.4-0.3-3.7-0.4c5.2,1.3,8.8,2.3,8.8,2.3l1.6,0.8
		c0,0-0.3,0.3,0.4,0.4C38.1,70.8,38.3,70,38.1,68.6z"/>
	<path fill="none" d="M69.9,54.1L66,58.8l-12.7,9.9c1.3-0.6,2.5-1.3,3.7-2c6.8-4.4,13-9.5,16.8-16.9c1.3-2.6,1.8-5.7,2.6-8.6
		c-0.2,0-0.3-0.1-0.5-0.1c-0.6,2.5-1.1,4.2-1.1,4.2L69.9,54.1z"/>
	<path fill="none" d="M49.6,75.9c3.1-1.7,6.2-3.3,9.1-5.2c3.3-2.1,6.4-4.4,9.5-6.8c2.2-1.7,4.2-3.7,4.5-6.8c-0.3,0-0.5-0.1-0.5,0
		c-0.3,0.3-0.7,0.6-1,1C65.8,64.7,59,69.4,51.1,72.6c-0.9,0.3-1.7,0.8-1.9,1.7C49.4,74.8,49.5,75.4,49.6,75.9
		C49.6,75.9,49.6,75.9,49.6,75.9z"/>
	<path fill="none" d="M36.9,74c-3.1-0.1-6.2-0.4-9.2-0.9c-2.3-0.4-4.7-0.9-6.8-1.7c-3.3-1.3-6.4-3-9.6-4.5c-0.1,0.2-0.2,0.3-0.3,0.5
		c2.9,2.1,5.7,4.4,8.9,6.1c5.3,2.8,10.8,4.8,17,4.6c1.1,0,1.8-0.3,2-1.2c-0.1-0.7-0.2-1.4-0.2-2.1C38.3,74.2,37.8,74,36.9,74z"/>
	<path fill="none" d="M47.7,74.9c0-0.3-1.1-0.6-1.6-0.7c-0.6-0.1-1,0-2,0c0,0,0,0,0,0c-1,0-1.8-0.2-2.6,0.1c-0.5,0.2-1.1,1-1.1,1.5
		c0,0.7,0.5,2.1,0.7,2.2c2-0.1,4-0.4,5.9-0.9C47.3,76.8,47.7,75.6,47.7,74.9z"/>
	<path fill="none" d="M51.2,54c5.4-2.2,9.5-6,12.5-11c1.7-2.8,0.6-5.9-2.2-7.4c-1-0.6-2-1.2-2.9-1.8C56,32,55.4,30,56.7,27.2
		c0.6-1.3,1.4-2.6,2.2-3.9c0.9-1.5,0.8-2.9-0.4-4.2c-2.9-3.1-6.4-4.7-10.6-4.4c-3,0.3-6,0.9-8.9-0.3c-0.3-0.1-0.7,0-1,0
		c-5.8-0.1-11,2.1-16.2,4.5c-3.2,1.5-5.6,3.9-7.2,7c-1.3,2.7-0.7,5.2,1.7,7c1.2,0.9,2.4,1.7,3.5,2.7c1.7,1.5,1.4,3.5-0.2,4.9
		c-2.2,1.9-4.4,3.9-6.3,6.1c-1.3,1.6-1.4,3.5-0.5,5.5c1.8,4,5.5,4.9,9.3,5.5c4.3,0.6,8.6,0.9,12.9,1.3c4.6,0.5,6.4,2.6,5.6,7.2
		c0,0.2,0,0.4,0,0.7c3.9,0.8,4.6,0.3,4.5-3.4C44.9,59,47.4,55.5,51.2,54z"/>
	<path fill="none" d="M42.1,71.1c0.1,0,0.3,0,0.4,0C42.4,71.1,42.2,71.1,42.1,71.1z"/>
	<path fill="none" d="M46.5,69.1c-0.1-0.6-1-1.4-1.6-1.4c-1.2,0-2.5,0.3-3.7,0.7c-0.5,0.2-1,0.9-1.2,1.5c-0.1,0.3,0.7,0.9,1.2,1.1
		c0.2,0.1,0.4,0.1,0.7,0.1c0.1,0,0.1,0,0.2,0c0.1,0,0.2,0,0.4,0c0.1,0,0.2,0,0.3,0c0.1,0,0.2,0,0.2,0c0,0,0,0,0-0.1c0,0,0.3,0,0.5,0
		c0.7-0.1,1.4-0.1,2.1-0.2C46.1,70.5,46.6,69.6,46.5,69.1z"/>
	<path fill="none" d="M43.5,71c0.7,0.1,1.4,0.2,1.9-0.1c0.1,0,0.1-0.1,0.2-0.1C44.9,70.9,44.2,71,43.5,71z"/>
	<path fill="#724F17" d="M46.9,63.8c0-1.2,0.5-2.4,0.8-3.5c0.4-1.7,1.8-1.2,2.9-1.6c1.2-0.4,2.3-1.2,3.3-1.9
		c5.1-3.4,9.6-7.4,11.8-13.4c1.6-4.4,0-8.7-4.1-10.9c-0.5-0.3-1-0.6-1.5-1c-2.2-1.5-2.5-2.3-1-4.7c1.8-2.8,2.8-5.6,0.8-8.9
		c-2.2-3.6-9.5-6.5-13.6-5.7c-1.8,0.4-3.8-0.1-5.7-0.4c-3.5-0.4-6.9-0.4-10.2,0.9c-0.7,0.3-1.4,0.6-2.1,0.8c-0.7,0.1-1.4,0-2.6,0
		c-3.2,1.9-6.9,4.1-10.8,6.5c-0.2,0.4,1.1,2.4-1.4,1.7c-0.1,0-0.6,0.7-0.7,1.2c-0.1,0.9,0.1,1.8-0.2,2.6c-1.3,4,0.2,8.2,3.8,10.3
		c0.7,0.4,1.4,1,2.1,1.6c-1.9,2-3.8,3.7-5.4,5.7c-2.7,3.3-3.7,6.9-1.5,10.9c0.3,0.5,0.2,1.2,0.5,1.7c0.3,0.6,0.8,1.3,1.4,1.6
		c1.3,0.8,2.9,1.1,3.5,2.9c0.4,1.2,3.3,1.7,4.7,1c0.6-0.3,1.4-0.6,2-0.6c4.3,0.5,8.7,1.2,13,1.8c0.4,0.1,0.8,0,1.2,0
		c1.6-0.3,1.8,0.4,1.5,1.7c-0.3,1.2-0.8,2-1.4,2.5c0.1,1.1,0.1,2.7,0.3,4.5c0.8,0,2.1,0,3.8-0.1c-0.1,0-0.1,0-0.2,0
		c-0.2,0-0.5,0-0.7-0.1c-0.5-0.2-1.3-0.8-1.2-1.1c0.1-0.6,0.7-1.3,1.2-1.5c1.2-0.4,2.7-0.7,3.7-0.6V68c0,0-0.1,0-0.1,0
		c0.6,0,1.5,0.7,1.6,1.2c0.1,0.5-0.4,1.3-0.9,1.7c1.1-0.1,2.1-0.3,2.9-0.5c-0.4-2-0.7-3.8-0.7-5.1C47.1,65.2,46.8,64.6,46.9,63.8z
		 M45,63.4c0.1,3.7-0.6,4.2-4.5,3.4c0-0.3,0-0.5,0-0.7c0.8-4.5-1-6.7-5.6-7.2c-4.3-0.4-8.6-0.7-12.9-1.3c-3.8-0.5-7.4-1.4-9.3-5.5
		c-0.9-2-0.9-4,0.5-5.5c1.9-2.2,4.1-4.2,6.3-6.1c1.6-1.3,1.8-3.4,0.2-4.9c-1.1-1-2.3-1.9-3.5-2.7c-2.4-1.7-3.1-4.3-1.7-7
		c1.6-3.2,4-5.5,7.2-7c5.1-2.4,10.4-4.5,16.2-4.5c0.3,0,0.7-0.1,1,0c2.9,1.3,5.9,0.6,8.9,0.3c4.2-0.4,7.7,1.3,10.6,4.4
		c1.3,1.4,1.4,2.7,0.4,4.2c-0.8,1.3-1.6,2.5-2.2,3.9C55.4,30,56,32,58.6,33.8c0.9,0.6,1.9,1.3,2.9,1.8c2.8,1.6,3.9,4.7,2.2,7.4
		c-3,5-7.1,8.8-12.5,11C47.4,55.5,44.9,59,45,63.4z"/>
	<path fill="#724F17" d="M42.5,71.1c0.2,0,0.3,0,0.5,0c-0.1,0-0.1,0-0.2,0C42.7,71.1,42.6,71.1,42.5,71.1z"/>
	<path fill="#513409" d="M49.3,74.3c-0.3-1.3-0.6-2.6-0.8-3.9c-0.8,0.2-1.8,0.3-2.9,0.5c-0.1,0-0.1,0.1-0.2,0.1
		c-0.5,0.3-1.2,0.1-1.9,0.1c-0.2,0-0.3,0-0.5,0c-0.2,0-0.3,0-0.5,0c-0.1,0-0.2,0-0.4,0c-1.7,0.1-3,0.1-3.8,0.1
		c0.1,1.1,0.2,2.3,0.3,3.5c0.2,0.3,0.3,0.8,0.3,1.4c0,0.3,0,0.6-0.1,0.8c0.2,1.5,0.4,3,0.6,4.2c3.7-0.1,7.3-1.1,10.7-2.8
		c-0.2-0.7-0.3-1.5-0.5-2.4C49.3,75.2,49.2,74.7,49.3,74.3z M47,76.9c-1.9,0.5-3.9,0.8-5.9,0.9c0,0,0,0,0,0c0,0,0,0,0,0
		c-0.2,0-0.7-1.4-0.7-2.2c0-0.5,0.6-1.3,1.1-1.5c0.8-0.2,1.6-0.1,2.6-0.1c0,0,0,0,0,0c1,0,1.4-0.1,2,0c0.6,0.1,1.6,0.5,1.6,0.7
		C47.6,75.6,47.4,76.8,47,76.9z"/>
	<path fill="#724F17" d="M43,71.1c0.2,0,0.3,0,0.5,0C43.3,71,43.1,71,43,71.1C43,71,43,71.1,43,71.1z"/>
	<path fill="#724F17" d="M46.1,74.1c0.6,0.1,1.5,0.5,1.5,0.7c0,0.7-0.3,1.9-0.7,2C45,77.4,43,77.6,41,77.8c0,0,0,0,0,0
		c2-0.1,4-0.4,5.9-0.9c0.4-0.1,0.7-1.3,0.7-2C47.7,74.6,46.7,74.2,46.1,74.1z"/>
	<path fill="#724F17" d="M40,70c0.1-0.6,0.6-1.3,1.2-1.5c1.2-0.4,2.4-0.7,3.7-0.7c0,0,0,0,0,0c-1.2,0-2.5,0.3-3.7,0.7
		C40.7,68.6,40.2,69.4,40,70c-0.1,0.3,0.7,0.9,1.2,1.1c0.2,0.1,0.4,0.1,0.7,0.1c-0.2,0-0.5,0-0.7-0.1C40.7,70.9,39.9,70.2,40,70z"/>
	<path fill="#7F5614" d="M76,41.1c0.2,0,0.3,0.1,0.5,0.1c-0.9,2.9-1.3,5.9-2.6,8.6c-3.8,7.4-10,12.5-16.8,16.9
		c-1.2,0.8-2.4,1.4-3.7,2l0,0c0,0-0.6,0.4-2.1,1c-0.8,0.4-1.6,0.7-2.4,1.1c0-0.2-0.1-0.3-0.1-0.4c-0.1,0-0.1,0-0.2,0
		c0.2,1.3,0.5,2.6,0.8,3.9c0.1-0.9,1-1.3,1.9-1.7c7.8-3.2,14.6-7.9,20.1-14.4c0.3-0.4,0.6-0.7,1-1c0.1-0.1,0.3,0,0.5,0
		c-0.3,3.1-2.3,5.1-4.5,6.8c-3,2.4-6.2,4.7-9.5,6.8c-2.9,1.9-6,3.4-9.1,5.2c0,0,0,0,0,0c0.2,0.9,0.4,1.7,0.5,2.4
		c0.6-0.3,1.3-0.7,1.9-1.1c4.2-2.5,8.5-4.9,12.6-7.6c5.9-4,10.9-8.8,11.8-16.4c0.2-1.4,0.1-2.8,0.2-4.2c0.4-3.8,0.9-7.5,1.4-11.8
		c-0.1-1.1-0.3-2.2-0.4-3.4C77.1,36.5,76.5,39.1,76,41.1z"/>
	<path fill="#997433" d="M53.3,68.7L53.3,68.7c-0.7,0.3-1.4,0.6-2.1,1C52.7,69.1,53.3,68.7,53.3,68.7z"/>
	<path fill="#7F5614" d="M36.8,78c-6.1,0.2-11.7-1.8-17-4.6c-3.2-1.7-5.9-4-8.9-6.1c0.1-0.2,0.2-0.3,0.3-0.5
		c3.2,1.5,6.3,3.2,9.6,4.5c2.2,0.9,4.5,1.4,6.8,1.7c3,0.5,6.1,0.7,9.2,0.9c0.9,0,1.4,0.2,1.7,0.7c-0.1-1.2-0.2-2.4-0.3-3.5
		c-0.7,0-1.1-0.1-1.4-0.2c-0.2,0-0.5,0.1-0.8,0.1c-6.9-0.2-13.5-1.4-19.8-4.2c-3.3-1.5-5.6-3.7-7.3-6.6c-1.9-1.7-3.3-3.5-4.3-4.8
		c-0.1,0.4-0.3,0.9-0.4,1.3c-0.1,0.4,0.1,0.9,0.2,1.3c1.6-0.3,1.2,1,1.5,1.8C7,62.3,7.5,65,8.9,67c6.5,9,16,12.5,26.6,13.8
		c1.3,0.2,2.7,0.2,4,0.2c-0.2-1.3-0.5-2.7-0.6-4.2C38.6,77.7,38,78,36.8,78z"/>
	<path fill="#997433" d="M23.6,66.9c0.8,0.3,1.6,0.5,2.5,0.6C25.3,67.3,24.4,67.1,23.6,66.9z"/>
	<path fill="#997433" d="M34.3,66.6c-2.6-1.1-9.4-1.5-12.5-0.8c0.5,0.5,1.1,0.8,1.7,1.1c0.9,0.2,1.7,0.4,2.5,0.6
		c1.2,0.1,2.5,0.2,3.7,0.4c2.7,0.6,5.5,0.5,8.3,0.7c0.3,1.3,0.1,2.2-1.1,2.4c0.3,0.1,0.7,0.1,1.4,0.2c-0.1-1.8-0.2-3.4-0.3-4.5
		C37.2,67.3,36.1,67.3,34.3,66.6z"/>
	<path fill="#997433" d="M50.8,66.2c4.7-2.1,9.4-4.3,13.6-8.4C63.4,58,63,58,62.6,58.1c-1,0.3-1.9,0.6-2.8,0.9
		c-0.9,0.3-1.8,0.8-2.7,1.2c-0.9,0.5-1.7,1-2.6,1.5c-1.9,1.1-3.9,2.1-5.7,3.3c-0.4,0.3-0.8,0.4-1.1,0.4c0.1,1.3,0.4,3.2,0.7,5.1
		c0.1,0,0.1,0,0.2,0C47.9,67.8,48.3,67.3,50.8,66.2z"/>
	<path fill="#997433" d="M9,60.3c-0.9-1.5-1.5-3.2-2-5c-0.5-2.1-1.4-4.1-0.6-6.4c0.4-1.1,0-2.5-0.2-3.7c-1.8-11.3,0.4-21.7,8.6-30
		C20.3,9.6,27.1,6.1,35.4,7c6,0.7,12,1.3,18,2.2c2,0.3,3.9,1.4,5.6,2.1c-0.3,1-0.8,1.8-0.6,2.5c0.1,0.4,1.1,0.7,1.8,0.9
		c0.8,0.2,1.5,0.3,2.5,0.5c0.1-0.5,0.2-1,0.3-1.5c2.9-1,11.4,9.7,12.1,14.9c0.9,6.9-0.9,13.2-3.8,19.4c2.8-1.6,3.5-4.5,4.7-7
		c0,0,0,0,0.1,0c0.5-2,1.1-4.6,1.6-7.3c-0.3-3.1-0.5-6.4-1.5-9.5C73.7,16.7,68,11.8,61,8.4c-6.2-3-12.7-4.1-19.5-4.3
		c-0.9,0-1.8,0-2.6-0.2C33,3,27.3,3.5,22.1,6.2C14.7,10.1,9.3,16,6.4,24c-3.6,10-3,20.2-1.5,30.4c0.1,0.4,0,0.7-0.1,1.1
		C5.7,56.8,7.2,58.6,9,60.3z"/>
</g>
<path fill="#AF823A" d="M17.3,29c0,0-3.4-5.8,8.2-9.5s10.9-3.9,10.9-3.9s3.5,3.6-4.3,6S25,30.1,25,30.1L17.3,29z"/>
<path fill="#997433" d="M62.9,19.1c0,0,2.6,2.8,1,6.7c-1.6,3.9,4.7,5.1,6.5,5.1c1.8,0-3.5-2.8-2.6-5.7C68.6,22.4,68,18.9,62.9,19.1z
	"/>
<path fill="#FFFFFF" d="M38.7,30.9l-4.5-2.4c0,0,3.2-3,6.7-2.4c3.5,0.6-2.4,1.4-2.2,2.4C38.9,29.5,40.2,29.5,38.7,30.9z"/>
<path fill="#724F17" d="M26.2,38c0,0-0.7,2.5,4.8,5c5.5,2.4,4.9,1.4,4.9,1.4s-7.6-3.6-8.4-6.1C26.7,35.8,26.2,38,26.2,38z"/>
<path fill="#724F17" d="M51.3,38c0,0,0.7,2.5-4.8,5c-5.5,2.4-4.9,1.4-4.9,1.4s7.6-3.6,8.4-6.1C50.9,35.8,51.3,38,51.3,38z"/>
</svg>
