<?xml version="1.0" encoding="utf-8"?>
<!-- Generator: Adobe Illustrator 19.1.0, SVG Export Plug-In . SVG Version: 6.00 Build 0)  -->
<svg version="1.1" id="Layer_1" xmlns="http://www.w3.org/2000/svg" xmlns:xlink="http://www.w3.org/1999/xlink" x="0px" y="0px"
	 width="86.5px" height="88px" viewBox="-262 353 86.5 88" enable-background="new -262 353 86.5 88" xml:space="preserve">
<path opacity="0.2" d="M-252.1,412.8l1.2,5.2c0,0,11.1-2.6,15.7-3.7s7.5,0.1,7.5,0.1s9.7,16.9,11.4,18.9c1.7,2,5.3,2.8,7-2.2
	c1.7-5,4.7-18.7,4.7-18.7s16.1-4.4,16.3-5.8c0.2-1.5-1-4.9-1-4.9l-14.1-9c0,0,5.6-17.6,5.5-22.4c-0.1-4.7-5-5.2-5-5.2l-12,36.1
	L-252.1,412.8z"/>
<path fill="#EDB53A" d="M-200.9,365.9c-1.2,6.8-2.3,13.6-3.5,20.4c-0.4,2.1,0.3,3.3,2.1,4.5c4.7,3,9.3,6.1,13.9,9.3
	c0.5,0.4,1.1,1.3,1,1.7c-0.2,0.7-1,1.6-1.7,1.8c-4.8,1.5-9.7,3-14.6,4.1c-2.3,0.5-3.5,0.9-3.9,3.9c-0.7,5.8-2.3,11.6-3.7,17.3
	c-0.2,0.7-1.1,1.6-1.8,1.7c-0.7,0.1-1.7-0.7-2.1-1.3c-4.1-6.4-8.1-12.9-12.2-19.3c-0.3-0.5-1.6-0.9-2.2-0.7
	c-3.9,1.1-7.7,2.5-11.6,3.4c-3.3,0.8-6.7,1.5-10.1,1.6c-3.3,0.1-3.2-1.2-2.3-4.2c2-7,7.9-11.2,11.4-17.1c1.5-2.5,1.7-4.6,0.8-7.4
	c-1.5-5-2.4-10.2-3.4-15.4c-0.4-2.3,1.1-3.6,3.2-2.7c2.7,1.1,5.2,2.8,7.6,4.4c2.1,1.4,4.1,3,6.2,4.5c1.4,1,2.6,1,4-0.2
	c1.8-1.5,4-2.6,5.9-4c4.1-3,8.2-6,12.2-9.1c1.3-1,2.6-2.6,4.2-1.3c1,0.8,1.1,2.6,1.6,3.9C-200.2,365.9-200.6,365.9-200.9,365.9z
	 M-193.3,401.6c-1.1-1-1.5-1.4-2.1-1.8c-3.2-2.2-6.5-4.4-9.7-6.7c-2.8-1.9-3.8-3.7-2.7-6.1c2.6-5.7,2-12.4,5.8-17.6
	c0.2-0.2,0.2-0.6,0.3-0.9c0.4-2.4-1.1-3.7-3.4-2.9c-1.3,0.5-2.5,1.2-3.7,2c-5.4,3.9-10.8,7.7-16,11.8c-1.8,1.4-3.2,1.4-4.8,0.2
	c-2.7-2-5.4-4-8.1-6c-0.8-0.5-1.6-0.9-2.4-1.4c-1.6,2-1.9,3.9-1,6c0.9,2.2,1.9,4.3,2.7,6.6c0.4,1,0.4,2.2,0.3,3.2
	c-0.6,4.5-3.5,7.9-6.1,11.3c-2.5,3.4-4.4,7-5.2,11.6c1.7-0.3,3-0.4,4.3-0.8c3.8-1.1,7.5-2.5,11.3-3.5c2.2-0.6,4.5-1.1,6.7-1.1
	c0.9,0,2.3,0.9,2.8,1.8c1.8,3.2,3.2,6.6,5.1,9.8c1.4,2.5,3.3,4.8,4.9,7.2c0.3-0.1,0.6-0.1,0.9-0.2c0.8-5.3,1.6-10.6,2.3-15.9
	c0.3-2,0.8-3.2,3.1-3.4c2.5-0.2,5.1-0.6,7.5-1.2C-198.4,403.2-196.1,402.4-193.3,401.6z"/>
<path fill="#FFEC66" d="M-193.3,401.6c-2.8,0.8-5,1.6-7.3,2.1c-2.5,0.5-5,0.9-7.5,1.2c-2.2,0.2-2.8,1.4-3.1,3.4
	c-0.7,5.3-1.5,10.6-2.3,15.9c-0.3,0.1-0.6,0.1-0.9,0.2c-1.7-2.4-3.5-4.7-4.9-7.2c-1.8-3.2-3.2-6.6-5.1-9.8c-0.5-0.9-1.9-1.8-2.8-1.8
	c-2.3,0.1-4.5,0.5-6.7,1.1c-3.8,1.1-7.5,2.4-11.3,3.5c-1.3,0.4-2.7,0.5-4.3,0.8c0.9-4.6,2.7-8.2,5.2-11.6c2.6-3.5,5.5-6.8,6.1-11.3
	c0.1-1.1,0.1-2.2-0.3-3.2c-0.8-2.2-1.8-4.4-2.7-6.6c-0.8-2.1-0.5-4,1-6c0.8,0.5,1.7,0.8,2.4,1.4c2.7,2,5.4,4,8.1,6
	c1.7,1.2,3.1,1.2,4.8-0.2c5.3-4.1,10.7-7.9,16-11.8c1.1-0.8,2.4-1.5,3.7-2c2.2-0.9,3.7,0.5,3.4,2.9c-0.1,0.3-0.1,0.7-0.3,0.9
	c-3.8,5.3-3.3,12-5.8,17.6c-1.1,2.4-0.1,4.2,2.7,6.1c3.2,2.2,6.5,4.4,9.7,6.7C-194.8,400.2-194.4,400.7-193.3,401.6z"/>
<path fill="#FFFFFF" d="M-205.1,367.6c0,0-15.8,12.6-18.7,13.9s-6.8,0.5-9.6-2.2c-2.8-2.7-5.7-3.6-5.7-3.6s1.6,6.2,3.7,7
	s5.1,7.5,13.5,2.7S-205.1,367.6-205.1,367.6z"/>
<path fill="#FFFFFF" d="M-237.6,393.5c0,0-4.4,6.6-6.5,10.5s3-0.1,5.3-3.7s6.2-8.3,5.3-8.9C-234.4,390.7-235.8,386.8-237.6,393.5z"
	/>
</svg>
