<?xml version="1.0" encoding="utf-8"?>
<!-- Generator: Adobe Illustrator 19.1.0, SVG Export Plug-In . SVG Version: 6.00 Build 0)  -->
<svg version="1.1" id="Layer_1" xmlns="http://www.w3.org/2000/svg" xmlns:xlink="http://www.w3.org/1999/xlink" x="0px" y="0px"
	 width="86.5px" height="88px" viewBox="-262 353 86.5 88" enable-background="new -262 353 86.5 88" xml:space="preserve">
<g>
	<path opacity="0.2" d="M-207.2,385.2c0.5,1.9,1.5,2.8,3.3,3.1c-0.7-4.9-2.6-17-4.2-20.3c-1-2.1-2.6-2.7-4-2.9
		c-0.2,0.1-0.4,0.2-0.5,0.4C-210.8,372.1-209,378.6-207.2,385.2z"/>
	<path opacity="0.2" d="M-185.1,395.5c-0.2-0.7-1-1.8-1.8-2.6c-0.1,0.2-0.2,0.3-0.3,0.4c-3.7,3.4-7.4,6.8-11.4,9.9
		c-1.9,1.5-2.8,2.3-1.8,5.1c1.9,5.5,2.8,11.4,3.9,17.1c0.1,0.7-0.3,1.9-0.9,2.2c-0.6,0.3-1.8,0.1-2.4-0.3c-6.4-4-12.7-8.2-19.1-12.2
		c-0.5-0.3-1.8-0.1-2.3,0.3c-3,2.6-5.8,5.4-8.9,7.9c-2.6,2.1-5.4,4.2-8.4,5.7c-0.1,0.1-0.2,0.1-0.4,0.2l2.3,2.9c0,0,8.9-7,12.6-9.9
		s6.7-3.1,6.7-3.1s15.9,11,18.2,12.1c2.4,1.1,5.9,0.2,5.4-5c-0.5-5.2-3.6-18.8-3.6-18.8S-184.7,396.9-185.1,395.5z"/>
	<path fill="#FFEC66" d="M-187.1,392.5c0,0,0.6,0.6,1.2,1.3c0.3-0.6,0.5-1.3,0.4-1.9c-0.1-0.5-1-1.1-1.6-1.2
		c-5.5-0.9-10.9-1.7-16.4-2.4c-0.1,0-0.3,0-0.4-0.1c0.2,1.3,0.3,2.1,0.3,2.1L-187.1,392.5z"/>
	<path fill="#FFEC66" d="M-221.8,413.4c-1.2,0.8-2.3,1.7-3.4,2.6c-3,2.5-5.7,5.3-8.6,7.9c-1,0.9-2.2,1.6-3.6,2.5
		c-1.1-4.5-1-8.5-0.2-12.6c0.9-4.2,2-8.4,0.7-12.7c-0.3-1-0.9-2-1.6-2.8c-1.6-1.7-3.5-3.2-5.2-4.8c-1.6-1.5-2.2-3.4-1.6-5.8
		c0.9,0.1,1.8,0.1,2.8,0.2c3.3,0.6,6.5,1.3,9.8,1.9c2,0.4,3.3-0.2,4.3-2.2c3-5.9,6.2-11.6,9.4-17.4c0.7-1.2,1.5-2.3,2.5-3.3
		c0.6-0.7,1.3-1,2-1l-0.1-0.6c0,0,1.2-0.4,2.6-0.3c0.1-0.1,0.2-0.1,0.2-0.2c-1-1-1.9-2.5-3.1-2.8c-2-0.5-2.5,1.5-3.2,3
		c-2.3,4.5-4.7,8.9-7.1,13.3c-1.1,2.1-2.6,3.9-3.6,6.1c-0.8,1.6-1.9,2.1-3.5,1.8c-2.5-0.4-4.9-1.1-7.4-1.4c-2.9-0.4-5.8-0.8-8.7-0.8
		c-2.4,0.1-3.1,1.9-1.8,3.8c3.1,4.2,6.1,8.5,9.6,12.3c1.9,2.2,2.7,4.1,2.4,7c-0.7,6.7-4.2,13-3,20.1c0.5,3,0.9,4.1,3.5,3l-1-1.2
		L-221.8,413.4z"/>
	<path fill="#FFEC66" d="M-229.2,424.4c3.1-2.5,5.9-5.4,8.9-7.9c0.5-0.4,1.8-0.6,2.3-0.3c6.4,4,12.7,8.1,19.1,12.2
		c0.6,0.4,1.8,0.6,2.4,0.3c0.6-0.3,1.1-1.6,0.9-2.2c-1.2-5.7-2.1-11.6-3.9-17.1c-1-2.8,0-3.6,1.8-5.1c4-3.1,7.7-6.5,11.4-9.9
		c0.1-0.1,0.2-0.3,0.3-0.4c-0.7-0.8-1.2-1.3-1.2-1.3l-16.5-2.2c0,0-0.1-0.8-0.3-2.1c-1.8-0.3-2.8-1.1-3.3-3.1
		c-1.7-6.6-3.6-13.2-5.4-19.8c0.2-0.1,0.4-0.2,0.5-0.4c-1.4-0.1-2.6,0.3-2.6,0.3l0.1,0.6c1,0,1.8,0.7,2.3,2.1c0.1,0.3,0.2,0.7,0.2,1
		c-1.2,6.3,2.1,12.1,2.2,18.3c0,2.6,1.7,3.8,5,4.3c3.9,0.6,7.7,1.2,11.6,1.9c0.6,0.1,1.2,0.4,2.6,0.8c-2.2,1.9-3.9,3.6-5.7,5
		c-2,1.5-4.1,2.9-6.3,4.2c-1.9,1.1-1.9,2.5-1.3,4.3c1.6,5.1,3.1,10.2,4.6,15.3c-0.2,0.2-0.5,0.4-0.7,0.5c-2.5-1.4-5.1-2.7-7.4-4.3
		c-3-2.1-5.7-4.6-8.7-6.7c-0.8-0.6-2.4-0.9-3.3-0.4c-0.7,0.4-1.5,0.8-2.2,1.3l-17.1,15.7l1,1.2c0.1-0.1,0.2-0.1,0.4-0.2
		C-234.6,428.7-231.8,426.6-229.2,424.4z"/>
</g>
</svg>
